<svg xmlns="http://www.w3.org/2000/svg">
<defs>
<font horiz-adv-x="554" id="64433e35-936f-4806-b449-75ff58f8fc91">
<font-face font-family="" panose-1="2 11 7 3 3 5 2 2 2 4" ascent="948" descent="-250" units-per-em="1000" alphabetic="0">
</font-face>
<missing-glyph horiz-adv-x="0" />

<glyph unicode="&#xA;" />
<glyph unicode="&#xD;" horiz-adv-x="0" />
<glyph unicode=" " horiz-adv-x="278" />
<glyph unicode="!" horiz-adv-x="389" d="M141 197L123 723H257L244 197H141ZM129 133H256V0H129V133Z"  />
<glyph unicode="&quot;" horiz-adv-x="474" d="M206 697L179 449H100L73 697H206ZM397 697L371 449H292L265 697H397Z"  />
<glyph unicode="#" horiz-adv-x="556" d="M-9 285H94L116 406H34V516H137L170 697H298L265 516H360L393 697H522L488 516H571V406H468L446 285H528V175H425L393 0H265L298 175H202L170 0H41L73 175H-9V285ZM317 285L340 406H245L222 285H317Z"  />
<glyph unicode="$" horiz-adv-x="556" d="M160 215Q159 177 169 155T193 122T222 108T245 104V281Q205 292 168 306T102 343T56 400T38 485Q38 512 47 547T89 617Q110 640 133 653T177 674T218 683T251 688V772H306V690Q346 687 388 676T466 630Q484 612 494 593T508 556T514 522T516 493H382Q381 521 375 538T359 565T334 579T304 585V407Q346 396 385 383T455 348T504 291T523 202Q523 172 515 147T495 102T468 67T438 41Q399 13 362 7T297 -2V-102H244V-2Q208 -3 180 4T132 21T98 41T79 57Q47 86 37 124T24 215H160ZM250 583Q211 581 193 559T174 505Q174 484 180 470T197 447T221 432T250 422V583ZM299 102Q330 105 355 126T380 187Q380 219 362 238T299 270V102Z"  />
<glyph unicode="%" horiz-adv-x="889" d="M50 569Q50 582 51 601T56 642T71 685T99 723T146 751T217 762Q269 762 301 747T350 706T374 647T380 579Q380 560 378 527T359 460T309 403T210 379Q166 379 136 393T86 433T59 493T50 569ZM158 573Q158 515 169 488T213 461Q226 461 236 466T254 484T266 519T271 578Q271 593 270 611T263 646T247 673T217 684Q195 684 183 671T166 640T159 603T158 573ZM510 182Q510 195 511 214T516 254T531 297T559 335T606 363T677 374Q729 374 761 359T810 318T834 260T840 192Q840 179 839 160T834 118T819 73T789 32T741 3T669 -9Q625 -9 595 5T545 46T518 106T510 182ZM617 185Q617 128 629 101T673 73Q686 73 696 78T714 96T726 131T731 190Q731 205 730 223T723 258T706 285T676 296Q654 296 642 283T625 252T618 216T617 185ZM668 769L288 -12H213L593 769H668Z"  />
<glyph unicode="&amp;" horiz-adv-x="778" d="M707 449Q707 404 703 365T689 290T664 220T626 150L773 -2H586L530 65Q513 52 492 37T442 10T378 -11T296 -19Q237 -19 187 -5T101 38T44 106T23 199Q23 225 32 262T75 341Q103 376 129 394T174 425Q165 432 151 445T122 478T97 522T87 578Q87 594 94 621T124 676T190 722T308 742Q378 742 420 725T486 683T516 631T524 584Q524 542 508 511T469 457T422 420T384 397L530 250Q540 279 546 303T555 349T558 396T559 449H707ZM307 475Q315 481 327 491T351 515T371 545T380 580Q380 609 361 627T308 646Q275 646 255 629T235 582Q235 565 245 548T267 515T291 489T307 475ZM257 330Q224 308 202 280T179 211Q179 182 189 160T217 123T258 99T306 91Q341 91 377 108T439 145L257 330Z"  />
<glyph unicode="&apos;" horiz-adv-x="238" d="M51 697H184L157 449H78L51 697Z"  />
<glyph unicode="(" horiz-adv-x="333" d="M273 757Q261 719 246 671T217 567T194 447T185 316Q185 266 190 220T206 124T233 14T272 -123H163Q120 -18 91 90T62 311Q62 427 92 538T164 757H273Z"  />
<glyph unicode=")" horiz-adv-x="333" d="M60 -123Q72 -86 87 -38T116 67T139 187T148 318Q148 369 143 415T127 511T100 621T61 757H170Q213 653 242 545T271 324Q271 208 241 97T169 -123H60Z"  />
<glyph unicode="*" horiz-adv-x="556" d="M67 571L219 549L125 668L218 719L274 581L333 722L426 667L328 549L481 567L479 461L330 484L424 361L331 310L273 451L215 309L125 363L218 485L67 465V571Z"  />
<glyph unicode="+" horiz-adv-x="584" d="M225 202H26V331H225V533H359V331H558V202H359V0H225V202Z"  />
<glyph unicode="&#x2c;" horiz-adv-x="278" d="M250 133L131 -113H28L102 133H250Z"  />
<glyph unicode="-" horiz-adv-x="333" d="M44 321H292V208H44V321Z"  />
<glyph unicode="." horiz-adv-x="278" d="M74 133H201V0H74V133Z"  />
<glyph unicode="/" horiz-adv-x="444" d="M415 718L146 0H29L300 718H415Z"  />
<glyph unicode="0" horiz-adv-x="556" d="M38 347Q38 370 40 406T51 482T75 562T118 635T185 687T281 708Q318 708 347 699T398 677T437 647T463 616Q476 596 488 573T508 519T521 451T526 364Q526 303 517 237T482 116T407 25T279 -11Q212 -11 166 19T92 98T51 212T38 347ZM376 339Q376 355 375 377T372 424T367 471T358 511Q356 518 352 531T339 558T317 582T282 592Q266 592 254 586T234 570T221 551T213 532Q204 505 200 474T193 415T191 365T190 337Q190 292 194 251T208 177T237 126T283 107Q313 107 331 129T359 186T372 262T376 339Z"  />
<glyph unicode="1" horiz-adv-x="556" d="M95 593Q194 636 280 698H409V0H258V543Q236 526 194 502T95 454V593Z"  />
<glyph unicode="2" horiz-adv-x="556" d="M25 141L206 306Q230 328 256 353T311 412Q340 447 349 468T359 513Q359 553 337 577T276 602Q246 602 229 589T202 559T191 524T188 500H35Q35 510 35 525T40 557T52 593T76 631Q106 669 158 688T275 707Q332 707 376 693T450 653T495 592T511 517Q511 490 502 457T460 377T360 265T181 109Q219 110 242 110T285 111T323 112T373 113Q413 114 437 114T475 115T498 115T515 116V0H25V141Z"  />
<glyph unicode="3" horiz-adv-x="556" d="M174 190Q174 182 176 167T188 136T215 109T264 97Q306 97 330 124T354 192Q354 231 338 251T296 282T240 293T182 295V412Q208 413 238 415T295 427T338 457T355 516Q355 558 329 578T269 599Q253 599 238 594T210 577T191 550T184 512H31Q33 535 39 566T72 630Q107 672 158 689T266 707Q333 707 378 688T450 641T489 579T501 517Q501 473 485 444T446 398T401 371T367 359Q384 354 405 345T450 316Q468 301 479 284T497 251T505 219T507 191Q507 147 488 109T435 44T355 1T254 -15Q235 -15 213 -13T169 -5T125 9T86 32Q63 51 50 74T31 119T24 160T22 190H174Z"  />
<glyph unicode="4" horiz-adv-x="556" d="M16 152V287L296 698H445L444 267H539V152H444V0H296V152H16ZM128 264H304V448Q304 451 304 461T304 483T305 506T306 525L128 264Z"  />
<glyph unicode="5" horiz-adv-x="556" d="M179 172Q179 166 181 153T193 127T218 104T261 94Q281 94 299 101T332 125T355 165T364 225Q364 250 359 272T343 312T314 340T271 350Q246 350 230 342T203 321T189 298T182 280L37 284L53 697H476V583H185L176 410Q184 417 195 426T221 442T258 455T308 460Q350 460 387 445T453 402T497 332T514 238Q514 193 501 148T457 67T380 8T265 -15Q210 -15 158 1T70 61Q44 93 38 122T31 172H179Z"  />
<glyph unicode="6" horiz-adv-x="556" d="M371 525Q369 563 348 578T298 594Q260 594 240 574T209 523T197 459T193 398Q202 407 214 416T243 434T281 448T330 454Q366 454 402 441T466 401T512 332T530 233Q530 175 513 132T456 51Q421 19 379 3T278 -14Q218 -14 177 3T109 49T68 113T46 184T38 250T37 303Q37 355 41 407T58 507T92 593T150 658Q173 675 197 685T243 700T283 706T311 707Q350 707 387 697T453 664T500 608T519 525H371ZM287 98Q303 98 320 104T351 124T374 163T383 223Q383 281 357 312T293 343Q284 343 267 339T234 322T205 285T192 220Q192 188 200 165T221 127T251 105T287 98Z"  />
<glyph unicode="7" horiz-adv-x="556" d="M37 697H510V573L270 0H103L358 581H37V697Z"  />
<glyph unicode="8" horiz-adv-x="556" d="M174 366Q161 370 139 378T95 404T58 447T42 515Q42 547 55 581T98 644T173 691T283 710Q335 710 379 696T454 657T502 597T520 521Q520 489 509 463T478 417T435 385T383 368Q393 365 407 361T436 349T466 328T495 296Q513 270 520 244T527 192Q527 144 507 107T451 43T369 3T271 -11Q218 -11 174 5T98 48T49 113T31 192Q31 233 45 262T82 314Q108 339 131 349T174 366ZM281 423Q319 423 347 447T375 513Q375 534 367 550T346 578T317 594T282 600Q244 600 218 577T191 513Q191 476 215 450T281 423ZM281 96Q297 96 314 101T346 119T370 152T380 202Q380 250 350 276T280 303Q236 303 208 274T180 200Q180 173 189 154T212 122T245 103T281 96Z"  />
<glyph unicode="9" horiz-adv-x="556" d="M184 170Q187 138 206 120T257 102Q296 102 318 120T352 168T365 233T366 306Q347 289 330 280T296 265T266 259T240 258Q176 258 135 280T69 336T35 408T25 477Q25 526 42 567T91 640T168 688T272 706Q332 706 373 689T442 643T485 578T507 504T516 430T518 366Q518 255 500 182T447 66T362 5T249 -13Q239 -13 220 -12T176 -6T127 10T81 41T47 93T33 170H184ZM267 373Q295 373 313 384T343 411T358 448T363 487Q363 533 340 563T270 593Q243 593 225 584T195 558T178 523T173 483Q173 474 175 456T187 419T215 387T267 373Z"  />
<glyph unicode=":" horiz-adv-x="278" d="M76 134H202V0H76V134ZM76 505H202V370H76V505Z"  />
<glyph unicode=";" horiz-adv-x="278" d="M80 505H206V370H80V505ZM235 133L116 -113H13L87 133H235Z"  />
<glyph unicode="&lt;" horiz-adv-x="584" d="M26 334L558 540V400L186 267L558 134V-7L26 200V334Z"  />
<glyph unicode="=" horiz-adv-x="584" d="M26 447H558V318H26V447ZM26 215H558V86H26V215Z"  />
<glyph unicode="&gt;" horiz-adv-x="584" d="M26 -7V134L398 267L26 400V540L559 334V200L26 -7Z"  />
<glyph unicode="?" horiz-adv-x="500" d="M142 162V255Q142 263 142 272T146 291T157 314T179 343L223 392Q253 426 276 462T299 537Q299 546 296 562T281 595T245 624T179 636Q162 636 147 635T116 630T84 623T46 612V716Q75 724 115 730T215 736Q259 736 302 726T378 693T432 635T453 549Q453 535 449 509T425 453Q414 437 406 427T392 409T382 398T373 390L316 339Q296 321 284 309T266 286T258 265T256 243V162H142ZM139 120H259V0H139V120Z"  />
<glyph unicode="@" horiz-adv-x="975" d="M807 90Q765 59 726 39T650 6T577 -12T502 -18Q417 -18 347 9T225 85T146 202T118 352Q118 442 150 513T238 635T365 711T519 738Q586 738 647 719T754 662T829 568T857 437Q857 384 842 337T799 255T734 200T653 179Q636 179 615 185T577 211Q566 225 564 237T560 258Q546 231 529 215T494 189T459 177T427 173Q370 173 332 213T293 326Q293 370 308 412T349 488T412 542T492 563Q512 563 534 557T574 536Q585 526 589 518T597 502L610 547H709L649 341Q644 327 640 311T636 280Q636 262 646 254T670 245Q689 245 710 259T748 298T776 360T788 442Q788 508 763 553T699 627T612 667T517 680Q450 680 390 659T283 595T210 491T183 348Q183 276 207 219T274 122T376 61T506 40Q523 40 549 42T610 53T686 81T773 135L807 90ZM411 311Q411 307 412 297T418 275T433 254T461 245Q475 245 485 251T504 267T518 286T528 305Q538 327 545 350T556 394T563 428T565 444Q565 461 553 476T516 491Q496 491 477 476T444 435T420 377T411 311Z"  />
<glyph unicode="A" horiz-adv-x="722" d="M450 723L701 0H545L493 156H207L153 0H5L266 723H450ZM454 273L354 581L247 273H454Z"  />
<glyph unicode="B" horiz-adv-x="667" d="M68 722H338Q354 722 376 722T422 718T470 708T516 688Q541 672 556 652T581 611T593 570T597 534Q597 524 596 511T590 483T577 454T555 426Q553 424 546 418T528 404T503 389T473 377V375Q514 367 543 350T590 308T617 256T626 199Q626 135 594 93T520 29Q499 18 472 12T419 4T370 1T338 0H68V722ZM216 428H324Q340 428 361 429T402 439T435 467T448 521Q448 555 436 573T404 599T363 609T321 611H216V428ZM216 116H321Q348 116 374 117T423 128T458 157T472 213Q472 252 457 272T417 303T363 314T305 316H216V116Z"  />
<glyph unicode="C" horiz-adv-x="667" d="M476 487Q475 496 472 517T456 559T421 597T359 614Q316 614 285 593T235 536T206 450T196 345Q196 334 196 312T201 262T215 205T241 152T283 113T347 97Q371 97 394 105T435 129T464 172T477 234H640Q639 218 637 198T629 156T610 110T575 64Q551 39 525 24T471 -1T416 -13T364 -17Q271 -17 208 14T106 97T51 214T34 346Q34 432 57 502T123 622T227 699T365 727Q424 727 473 710T558 661T614 585T634 487H476Z"  />
<glyph unicode="D" horiz-adv-x="722" d="M65 721L304 720Q319 720 347 719T411 712T483 692T553 655Q587 630 610 597T648 527T669 450T676 371Q676 288 656 225T600 116T518 44T420 8Q410 6 399 5T372 2T337 1T290 0H65V721ZM222 119Q235 118 252 118T283 117Q333 117 375 125T451 167Q474 190 487 219T506 278T514 333T516 371Q516 409 509 445T487 510T446 562T384 594Q372 597 358 599T324 603T280 605T222 604V119Z"  />
<glyph unicode="E" horiz-adv-x="611" d="M74 723H558V605H229V433H537V315H229V120H569V0H74V723Z"  />
<glyph unicode="F" horiz-adv-x="556" d="M69 722H535V606H224V428H514V308H224V0H69V722Z"  />
<glyph unicode="G" horiz-adv-x="778" d="M554 501Q553 515 551 534T534 574Q523 592 508 603T475 620T442 628T413 630Q347 630 306 603T242 534T210 445T202 355Q202 337 204 312T212 261T230 209T262 161Q289 131 328 115T432 99Q460 99 479 100T512 104T535 108T550 113V265H410V385H705V24Q688 18 665 11T611 -2T537 -12T441 -16Q379 -16 332 -9T247 11T183 41T134 80Q104 110 85 145T56 216T42 286T38 350Q38 446 66 519T145 642T265 717T417 743Q487 743 553 722T663 652Q681 631 691 611T706 571T713 534T715 501H554Z"  />
<glyph unicode="H" horiz-adv-x="722" d="M67 723H222V434H495V723H652V0H497V317H222V0H67V723Z"  />
<glyph unicode="I" horiz-adv-x="278" d="M60 725H215V0H60V725Z"  />
<glyph unicode="J" horiz-adv-x="556" d="M161 234Q163 175 180 141T246 106Q268 106 282 113T306 129T319 149T325 167Q330 190 330 220T331 280V723H488V279Q488 237 484 200T467 131T432 72T376 24Q355 11 322 2T236 -7Q177 -7 130 10T47 81Q34 101 27 122T15 163T10 202T9 234H161Z"  />
<glyph unicode="K" horiz-adv-x="667" d="M67 721H222V410L464 723H645L380 399L668 0H475L222 368V0H67V721Z"  />
<glyph unicode="L" horiz-adv-x="556" d="M69 722H227V123H537V0H69V722Z"  />
<glyph unicode="M" horiz-adv-x="944" d="M60 723H313L466 197L631 723H877V0H723V620L526 0H398L205 620V0H60V723Z"  />
<glyph unicode="N" horiz-adv-x="778" d="M72 723H296L567 154V723H711V0H498L218 600V0H72V723Z"  />
<glyph unicode="O" horiz-adv-x="778" d="M42 351Q42 423 59 492T118 616T225 704T389 738Q418 738 451 734T518 719T584 689T643 640Q672 607 690 571T718 498T731 429T735 368Q735 329 729 289T712 212T683 143T644 85Q614 51 579 31T508 0T441 -14T387 -18Q315 -18 248 5T131 81Q101 112 84 149T57 222T45 292T42 351ZM204 356Q204 304 215 250T258 154Q275 131 305 114T389 96Q481 96 524 163Q533 176 542 194T557 237T568 294T573 370Q573 396 570 431T555 499Q532 566 489 596T390 627Q346 627 313 611T257 566Q226 528 215 473T204 356Z"  />
<glyph unicode="P" horiz-adv-x="611" d="M65 721H288Q327 721 362 719T430 709T489 685T539 642Q568 607 575 571T583 507Q583 444 559 394T491 315Q471 302 449 295T404 285T361 282T327 281H222V0H65V721ZM218 396H280Q299 396 323 397T370 409T407 442T423 506Q423 543 410 563T376 592T334 602T296 604H218V396Z"  />
<glyph unicode="Q" horiz-adv-x="778" d="M761 -2Q744 -2 721 -2T673 -1T625 0T583 0Q569 0 536 -1T466 -5Q429 -7 397 -9T352 -11Q285 -11 235 8T150 58T92 129T57 209T39 288T34 356Q34 430 54 498T116 620T224 705T382 737Q452 737 512 714T615 644T683 530T708 373Q708 311 696 266T666 189T631 137T599 104Q624 109 669 111T761 111V-2ZM194 365Q194 327 201 281T227 195T281 128T371 101Q428 101 463 127T517 194T544 283T551 375Q551 414 547 443T537 494T522 532T506 560Q499 570 488 582T461 604T423 620T376 627Q325 627 290 605T234 546T204 462T194 365Z"  />
<glyph unicode="R" horiz-adv-x="667" d="M60 723H337Q367 723 397 723T455 718T508 703T556 674Q590 645 604 608T619 535Q619 484 601 452T557 400T507 371T468 358Q509 354 532 341T569 307T587 256T598 192Q606 128 611 98T620 52Q626 28 631 19T642 0H471Q468 15 463 52T453 130T442 205T432 251Q427 266 418 274T398 287T376 291T354 292H218V0H60V723ZM213 407H338Q352 407 375 409T417 427Q421 430 428 436T441 453T452 477T457 511Q457 548 444 566T419 592Q401 605 378 607T317 609H213V407Z"  />
<glyph unicode="S" horiz-adv-x="667" d="M193 231Q193 218 195 195T209 150T247 111T324 94Q387 94 424 121T461 195Q461 219 453 234T427 259T384 276T324 292Q259 308 210 326T127 370T76 430T58 511Q58 556 74 596T125 667T214 716T344 735Q372 735 402 732T461 718T516 692T562 650Q577 630 585 610T598 572T602 540T603 516H454Q453 525 450 543T435 580T400 612T337 626Q283 626 251 600T218 528Q218 503 228 487T257 460T306 441T375 423Q422 412 466 399T546 363T602 306T623 218Q623 169 603 127T544 52T448 2T315 -17Q246 -17 199 -4T120 31T72 80T47 135T37 188T35 231H193Z"  />
<glyph unicode="T" horiz-adv-x="611" d="M229 603H14V723H600V603H385V0H229V603Z"  />
<glyph unicode="U" horiz-adv-x="778" d="M227 721V281Q227 251 230 220T249 162T295 120T384 103Q393 103 410 104T448 111T489 130T524 166Q530 174 534 184T541 208T545 242T547 289V721H698V270Q698 189 669 135T594 47T492 0T381 -14Q354 -14 318 -10T244 7T170 45T109 111Q83 153 78 195T72 289V721H227Z"  />
<glyph unicode="V" horiz-adv-x="722" d="M181 720L370 153L560 720H713L447 0H278L12 720H181Z"  />
<glyph unicode="W" horiz-adv-x="1000" d="M175 720L287 179L428 720H603L730 179L847 720H995L811 -2H639L508 550L367 -2H191L15 720H175Z"  />
<glyph unicode="X" horiz-adv-x="722" d="M221 723L367 477L523 723H689L451 375L703 0H513L352 272L179 0H13L267 374L30 723H221Z"  />
<glyph unicode="Y" horiz-adv-x="667" d="M197 720L346 391L498 720H657L413 263V0H260V265L16 720H197Z"  />
<glyph unicode="Z" horiz-adv-x="611" d="M27 132L405 605L50 602V720H573V583L196 113L581 119V0H27V132Z"  />
<glyph unicode="[" horiz-adv-x="333" d="M287 660H178V-30H287V-123H58V752H287V660Z"  />
<glyph unicode="\" horiz-adv-x="278" d="M144 718L415 0H298L29 718H144Z"  />
<glyph unicode="]" horiz-adv-x="333" d="M46 752H275V-123H46V-30H155V660H46V752Z"  />
<glyph unicode="^" horiz-adv-x="584" d="M232 697H349L530 264H392L289 536L189 264H51L232 697Z"  />
<glyph unicode="_" horiz-adv-x="500" d="M0 -75H500V-125H0V-75Z"  />
<glyph unicode="`" horiz-adv-x="278" d="M212 585H127L-12 730H128L212 585Z"  />
<glyph unicode="a" horiz-adv-x="556" d="M368 0Q364 23 364 40T363 69Q342 39 320 23T277 -1T240 -10T212 -12Q157 -12 129 1T86 28Q63 51 53 80T42 139Q42 154 45 174T60 216T93 259T149 296Q172 306 199 312T254 320T306 323T349 324Q349 349 348 363T342 391Q337 405 328 413T310 425T291 431T276 433Q260 433 245 426T220 405Q212 392 211 381T209 360H64Q64 370 65 384T73 415T90 448T121 479Q156 504 197 512T274 520Q290 520 313 518T361 509T410 490T454 455Q467 440 474 422T484 386T488 355T489 331L490 128Q490 96 492 64T502 0H368ZM349 238Q313 241 284 237T232 223T198 195T186 156Q186 143 190 131T204 108T226 91T258 84Q278 84 294 92T321 113Q341 137 345 167T349 238Z"  />
<glyph unicode="b" horiz-adv-x="611" d="M60 721H208V444Q227 469 248 482T288 502T324 510T351 512Q397 512 437 494T507 442T554 359T571 245Q571 174 552 126T503 47T436 4T360 -10Q350 -10 332 -9T292 1T248 25T208 71Q207 59 206 41T203 0H60V721ZM420 240Q420 255 418 284T406 341T373 391T311 413Q270 413 248 393T216 347T204 295T202 257Q202 170 234 129T318 87Q356 87 377 107T407 153T418 205T420 240Z"  />
<glyph unicode="c" horiz-adv-x="500" d="M332 326Q331 333 329 348T320 379T301 407T267 419Q241 419 226 402T202 359T192 307T189 258Q189 247 190 227T194 184T205 139T226 103Q237 92 247 89T266 86Q272 86 282 88T303 100T323 129T334 183H480Q479 168 477 150T469 113T450 73T415 34Q388 11 354 -1T271 -13Q220 -13 177 1T99 54Q66 92 51 142T35 253Q35 339 62 391T128 470T206 506T271 515Q306 515 342 505T409 472T458 413T477 326H332Z"  />
<glyph unicode="d" horiz-adv-x="611" d="M399 722H548V82Q548 59 549 37T552 0H402L398 73Q390 59 380 45T347 16Q319 -2 293 -6T249 -10Q147 -10 91 56T34 241Q34 304 50 354T96 439T166 493T257 512Q291 512 315 504T357 484T384 462T399 443V722ZM184 245Q184 213 189 185T207 134T238 99T286 86Q318 86 343 103T380 143Q397 175 400 209T404 262Q404 337 375 376T294 415Q257 415 235 396T202 349T188 293T184 245Z"  />
<glyph unicode="e" horiz-adv-x="556" d="M184 215Q184 203 185 180T197 135T227 97T287 80Q315 80 339 94T375 150H510Q509 141 508 129T501 102T487 72T462 40Q434 11 388 -4T285 -19Q269 -19 247 -17T200 -8T151 11T107 44Q72 80 57 130T42 241Q42 272 46 305T62 369T94 429T147 480Q176 500 211 511T289 522Q316 522 345 516T401 496T452 459T493 400Q506 374 512 348T521 298T524 252T523 215H184ZM372 308Q372 317 371 335T361 373T334 406T284 421Q260 421 243 412T214 387T196 351T189 308H372Z"  />
<glyph unicode="f" horiz-adv-x="333" d="M75 400H0V505H75V574Q75 607 82 636T108 688T161 722T249 735Q257 735 277 735T329 730V627Q318 629 313 629T298 630Q269 630 254 624T232 607T223 586T222 564V505H316V400H222V0H75V400Z"  />
<glyph unicode="g" horiz-adv-x="611" d="M544 503Q541 473 539 445T537 378V5Q537 -65 512 -105T448 -167T365 -193T285 -199Q258 -199 221 -195T150 -175T91 -127T63 -37H205Q206 -43 208 -54T220 -77T246 -98T293 -107Q326 -107 351 -91T385 -41Q387 -32 388 -23T390 -1T391 31T392 79Q374 56 356 42T320 21T286 12T256 10Q202 10 162 31T95 88T56 167T43 258Q43 306 56 351T97 431T164 487T259 508Q293 508 317 500T358 481T384 457T400 436L405 503H544ZM191 258Q191 249 192 225T203 175T233 131T290 111Q329 111 350 130T381 175T392 223T394 255Q394 276 391 303T378 353T347 393T293 409Q251 409 221 374T191 258Z"  />
<glyph unicode="h" horiz-adv-x="611" d="M69 722H216V436Q222 445 233 458T261 483T302 503T362 512Q390 512 413 506T454 490T486 468T509 444Q523 425 532 391T542 307V0H395V302Q395 313 394 331T385 368T360 399T312 412Q296 412 280 407T249 390T226 359T217 309L218 0H69V722Z"  />
<glyph unicode="i" horiz-adv-x="278" d="M60 722H218V593H60V722ZM65 506H213V0H65V506Z"  />
<glyph unicode="j" horiz-adv-x="278" d="M-2 -94Q23 -95 36 -86T56 -62T64 -33T65 -8V507H213V-45Q213 -81 205 -109T178 -157T127 -187T48 -198Q42 -198 29 -198T-2 -194V-94ZM60 722H218V593H60V722Z"  />
<glyph unicode="k" horiz-adv-x="556" d="M67 723H214V297L367 508H534L361 288L545 0H370L214 275V0H67V723Z"  />
<glyph unicode="l" horiz-adv-x="278" d="M65 723H213V0H65V723Z"  />
<glyph unicode="m" horiz-adv-x="944" d="M68 410Q68 434 67 457T63 505H206L211 440Q217 448 228 461T257 486T302 507T367 516Q410 516 439 505T486 478T513 446T526 421Q542 451 562 469T603 498T646 511T688 515Q726 515 753 505T799 482T827 455T842 434Q852 417 857 398T864 360T867 321T867 285V0H718V297Q718 317 716 337T705 374T679 401T633 411Q600 411 582 397T554 361T544 310T542 253V0H393V300Q393 315 392 334T382 370T358 399T310 411Q275 411 256 398T229 367T219 330T217 297V0H68V410Z"  />
<glyph unicode="n" horiz-adv-x="611" d="M67 415Q67 416 67 425T67 448T66 478T64 507H206L210 431Q215 440 226 454T256 483T304 508T374 519Q411 519 438 509T483 485T512 454T528 424Q532 412 535 401T539 373T541 332T542 273V0H391V314Q391 330 390 343T383 369Q375 386 358 399T311 412Q287 412 267 402T234 373Q227 363 222 344T216 296V0H67V415Z"  />
<glyph unicode="o" horiz-adv-x="611" d="M42 248Q42 294 55 341T98 428T178 492T303 517Q372 517 421 496T503 438T550 353T565 252Q565 199 550 150T502 64T419 4T300 -18Q246 -18 199 -2T117 48T62 132T42 248ZM194 247Q194 162 222 124T305 85Q329 85 349 93T384 121T406 174T414 258Q414 283 411 311T396 363T362 402T303 418Q262 418 240 398T208 350T196 293T194 247Z"  />
<glyph unicode="p" horiz-adv-x="611" d="M204 505L208 433Q225 463 248 480T293 504T334 513T362 515Q411 515 450 498T516 447T557 368T572 263Q572 209 558 161T517 75T448 15T352 -7Q318 -7 294 1T253 19T226 41T211 58V-194H60V505H204ZM314 90Q367 90 394 136T422 257Q422 279 419 307T404 361T373 403T320 420Q302 420 282 412T244 385T216 332T204 248Q204 237 206 211T218 158T251 111T314 90Z"  />
<glyph unicode="q" horiz-adv-x="611" d="M553 506Q553 503 553 490T552 462T551 431T550 409V-192H398V59Q392 52 382 41T354 20T314 1T258 -7Q220 -7 181 7T109 53T57 136T36 259Q36 332 55 381T105 460T173 503T249 516Q288 516 315 506T360 482T387 454T402 433L407 506H553ZM187 255Q187 243 188 227T192 193T202 159T220 127Q237 103 259 97T298 91Q334 91 355 108T388 151T402 203T406 252Q406 273 402 301T386 356T351 400T290 419Q258 419 238 404T207 366T191 313T187 255Z"  />
<glyph unicode="r" horiz-adv-x="389" d="M65 381Q65 390 65 406T63 442T61 478T58 507H197L200 410Q207 426 218 444T248 477T297 501T372 508V375Q316 380 284 370T236 341T217 298T213 249V0H65V381Z"  />
<glyph unicode="s" horiz-adv-x="500" d="M168 146Q169 134 173 122T187 100T213 84T252 77Q292 77 311 95T330 137Q330 154 317 168T260 194L168 219Q153 223 131 231T89 254T54 295T40 359Q40 396 56 425T101 474T171 506T261 517Q300 517 334 508T394 481T435 434T453 368H318Q316 389 308 401T289 419T267 426T246 428Q216 428 196 415T176 378Q176 352 194 343T245 325L336 300Q405 281 438 246T471 159Q471 126 457 95T414 40T342 0T239 -15Q190 -15 146 -2T66 47Q41 73 36 100T29 146H168Z"  />
<glyph unicode="t" horiz-adv-x="389" d="M362 7Q326 -3 296 -6T247 -9Q191 -9 161 6T117 43T101 88T98 127V404H1V502H98V601L245 655V502H365V404H245V176Q245 159 246 145T254 121T273 106T312 101Q329 101 338 101T362 104V7Z"  />
<glyph unicode="u" horiz-adv-x="611" d="M210 505V204Q210 187 211 168T219 132T243 104T289 93Q325 93 344 105T372 139T382 189T384 250V505H536V172Q537 131 537 107T538 69T539 49T539 37Q540 26 540 19T543 0H399L394 67Q388 59 378 46T350 19T307 -3T245 -13Q194 -13 154 7T93 55Q81 70 74 90T64 129T61 165T60 191V505H210Z"  />
<glyph unicode="v" horiz-adv-x="556" d="M165 505L279 162L395 505H538L356 0H192L7 505H165Z"  />
<glyph unicode="w" horiz-adv-x="889" d="M162 505L255 124L362 505H525L631 124L730 505H877L704 0H543L439 374L333 0H170L5 505H162Z"  />
<glyph unicode="x" horiz-adv-x="556" d="M191 505L286 340L385 505H539L375 259L544 0H369L267 185L164 0H9L178 271L16 505H191Z"  />
<glyph unicode="y" horiz-adv-x="556" d="M174 505L285 155L398 505H545L354 9L293 -192H144L208 -2L14 505H174Z"  />
<glyph unicode="z" horiz-adv-x="500" d="M32 130L288 406H39V505H453V378L197 102H463V0H32V130Z"  />
<glyph unicode="{" horiz-adv-x="333" d="M103 484Q103 525 107 566T135 640T208 696T348 723V641Q306 638 284 623T251 586T239 539T237 490V454Q237 421 231 390T208 334T160 292T79 271Q91 269 105 267T135 260T166 247T196 223Q224 195 230 160T237 88V51Q237 28 238 3T250 -44T283 -81T348 -99V-181Q278 -178 232 -164T153 -118Q141 -107 132 -95T116 -63T107 -14T103 58V93Q103 112 101 133T88 173T53 206T-15 228V314Q-1 315 23 323T68 348Q88 366 95 388T103 449V484Z"  />
<glyph unicode="|" horiz-adv-x="278" d="M205 750V-250H73V750H205Z"  />
<glyph unicode="}" horiz-adv-x="333" d="M230 58Q230 17 226 -24T198 -98T125 -154T-15 -181V-99Q27 -97 49 -82T82 -45T94 2T96 51V88Q96 103 97 120T102 155T114 190T137 223Q151 238 166 246T197 260T227 267T254 271Q241 272 227 274T197 281T166 297T135 324Q117 344 107 371T96 454V490Q96 513 95 538T83 585T50 622T-15 641V723Q74 718 123 696T196 641T225 567T230 484V449Q230 414 237 391T262 349Q271 340 283 334T308 323T331 317T348 314V228Q305 221 281 206T246 173T233 133T230 93V58Z"  />
<glyph unicode="~" horiz-adv-x="584" d="M18 173Q21 217 34 252T67 312T115 350T173 363Q190 363 212 358T279 338Q316 326 340 319T379 308T404 303T424 301Q442 301 453 308T470 326T478 346T482 361H567Q565 332 557 299T530 237T483 189T411 170Q385 170 338 184T232 217Q227 218 218 221T199 227T179 232T161 234Q135 234 121 217T102 173H18Z"  />
<glyph unicode="&#xA0;" horiz-adv-x="278" />
<glyph unicode="&#xA1;" horiz-adv-x="389" d="M252 337L271 -190H137L149 337H252ZM264 400H137V534H264V400Z"  />
<glyph unicode="&#xA2;" horiz-adv-x="556" d="M402 494Q440 479 461 456T491 408T503 361T505 326H361Q361 333 359 348T351 379T332 407T297 419Q269 419 253 400T229 354T219 300T217 256Q217 227 221 197T234 142T257 102T294 86Q301 86 312 89T334 102T353 132T363 183H509Q508 169 505 148T493 102T465 55T413 13Q392 2 371 -3T331 -11T298 -14T274 -12L240 -148H172L209 1Q185 8 159 26T112 75T77 149T63 250Q63 307 78 355T124 439T199 494T304 514Q318 514 325 514T337 512L369 637H438L402 494Z"  />
<glyph unicode="&#xA3;" horiz-adv-x="556" d="M30 116H103V323H19V435H104V523Q104 537 105 557T113 598T135 642T177 682Q199 697 235 711T335 725Q405 725 445 706T505 658T532 597T540 539H390Q390 548 388 562T380 590T360 614T324 624Q299 624 286 613T266 587T258 558T257 537V435H426V323H257V116H521V0H30V116Z"  />
<glyph unicode="&#xA4;" horiz-adv-x="556" d="M87 236Q77 253 66 279T55 348Q55 390 66 417T87 461L19 528L97 606L164 539Q187 550 213 560T275 570Q315 570 343 559T390 538L456 605L533 528L467 461Q476 444 487 417T498 348Q498 304 487 277T467 235L534 169L456 91L389 158Q372 148 346 138T277 127Q235 127 208 138T164 158L97 91L20 169L87 236ZM277 454Q232 454 202 424T171 348Q171 326 179 307T202 274T235 251T277 242Q299 242 318 250T351 273T374 307T383 348Q383 370 375 389T352 423T318 445T277 454Z"  />
<glyph unicode="&#xA5;" horiz-adv-x="556" d="M204 137H41V211H204V282H41V356H166L0 720H181L289 391L400 720H560L396 356H515V282H356V212H515V138H357L356 0H204V137Z"  />
<glyph unicode="&#xA6;" horiz-adv-x="278" d="M205 675V325H73V675H205ZM205 175V-175H73V175H205Z"  />
<glyph unicode="&#xA7;" horiz-adv-x="556" d="M93 122Q103 116 118 109T152 95T192 84T236 79Q252 79 267 82T294 91T313 107T320 132Q320 144 315 152T301 167T282 177T262 185L174 216Q147 225 128 240T96 273T78 311T72 350Q72 385 92 420T163 476Q155 479 142 486T117 507T96 539T87 588Q87 654 139 691T279 728Q338 728 376 717T433 698L430 595Q406 606 367 620T284 634Q276 634 263 632T240 622Q226 610 226 591Q226 579 231 570T244 555T258 546T271 540L359 511Q389 501 408 488T439 457T456 421T461 382Q461 333 436 303T378 257Q393 249 408 239T435 213T454 180T462 137Q462 102 448 73T407 24T343 -8T261 -20Q255 -20 240 -20T203 -16T152 -7T90 10L93 122ZM267 292Q287 299 300 309T321 330T332 353T336 373Q336 392 328 404T307 424T283 435T262 440Q233 432 212 414T191 366Q191 348 199 336T218 315T243 301T267 292Z"  />
<glyph unicode="&#xA8;" horiz-adv-x="278" d="M172 717H274V599H172V717ZM0 717H102V599H0V717Z"  />
<glyph unicode="&#xA9;" horiz-adv-x="800" d="M398 738Q475 738 544 709T664 628T746 508T776 360Q776 282 747 213T666 93T545 12T398 -18Q320 -18 252 11T132 92T51 213T21 360Q21 439 51 508T132 628T252 708T398 738ZM398 676Q333 676 276 652T175 584T107 484T82 360Q82 295 107 238T174 137T274 69T398 44Q464 44 522 69T622 137T690 237T715 360Q715 426 690 483T622 583T521 651T398 676ZM479 439Q479 445 477 457T467 483T444 506T404 516Q365 516 344 495T312 447T301 394T299 358Q299 348 300 323T311 272T341 225T400 204Q428 204 453 223T480 286H585Q584 277 583 265T577 239T564 210T540 181Q511 155 477 145T408 135Q349 135 309 153T243 203T207 273T196 354Q196 406 211 448T253 521T320 567T408 584Q484 584 532 545T581 439H479Z"  />
<glyph unicode="&#xAA;" horiz-adv-x="334" d="M231 392Q229 407 229 416T228 434Q222 426 215 418T196 402T169 390T130 385Q97 385 76 393T42 415T24 445T19 475Q19 508 40 535T99 574Q132 583 164 584T219 586Q219 596 219 607T214 629T200 645T172 652Q159 652 144 644T128 608H34Q34 638 47 656T81 685T125 700T170 704Q211 704 238 695T281 671T303 636T310 591V469Q310 452 312 431T318 392H231ZM219 535Q174 538 144 526T113 485Q113 467 126 455T161 443Q182 443 194 453T211 478T218 508T219 535Z"  />
<glyph unicode="&#xAB;" horiz-adv-x="556" d="M28 252L137 442H269L174 252L269 56H137L28 252ZM271 252L380 442H512L417 252L512 56H380L271 252Z"  />
<glyph unicode="&#xAC;" horiz-adv-x="584" d="M24 448H557V85H423V318H24V448Z"  />
<glyph unicode="&#xAD;" horiz-adv-x="333" d="M44 321H292V208H44V321Z"  />
<glyph unicode="&#xAE;" horiz-adv-x="800" d="M400 738Q476 738 545 709T665 629T747 509T778 360Q778 282 748 213T667 93T547 12T400 -18Q323 -18 254 11T134 92T52 212T22 360Q22 440 52 509T135 629T255 709T400 738ZM399 677Q334 677 277 653T177 586T108 486T83 361Q83 295 108 237T176 136T276 68T399 43Q465 43 523 68T624 137T692 238T717 361Q717 427 692 484T624 585T522 652T399 677ZM258 572H404Q423 572 448 570T497 558T536 525T552 460Q552 431 544 413T523 383T497 366T472 356Q494 354 506 347T526 327T536 297T542 260Q543 247 545 231T550 199T556 169T564 148H474Q473 155 471 176T465 220T460 261T458 282Q453 300 445 309T414 318H340V148H258V572ZM338 386H404Q424 386 436 392T456 408T465 427T468 446Q468 468 462 479T446 496T425 503T406 504H338V386Z"  />
<glyph unicode="&#xAF;" horiz-adv-x="278" d="M-36 624V692H306V624H-36Z"  />
<glyph unicode="&#xB0;" horiz-adv-x="400" d="M198 708Q233 708 263 695T317 659T353 605T367 539Q367 504 354 473T318 419T264 383T198 370Q163 370 133 383T79 419T43 473T29 539Q29 574 42 605T79 659T132 695T198 708ZM198 605Q172 605 152 586T132 539Q132 511 151 492T198 473Q227 473 246 492T265 539Q265 566 246 585T198 605Z"  />
<glyph unicode="&#xB1;" horiz-adv-x="584" d="M225 280H26V410H225V566H359V410H558V280H359V131H225V280ZM26 97H558V-33H26V97Z"  />
<glyph unicode="&#xB2;" horiz-adv-x="333" d="M13 585Q13 598 16 619T39 663Q62 688 98 698T170 709Q241 709 281 678T322 595Q322 577 318 562T304 531T276 495T231 451Q199 421 171 399T108 350L325 354V285H7V369L124 468Q149 488 169 507T206 549Q217 564 220 575T224 595Q224 616 210 631T171 646Q141 646 128 628T112 585H13Z"  />
<glyph unicode="&#xB3;" horiz-adv-x="333" d="M105 395Q105 390 107 381T115 362T132 346T164 339Q184 339 203 351T222 396Q222 419 212 431T186 450T150 457T111 458V528Q129 528 149 530T185 538T212 557T223 590Q223 615 206 627T166 640Q141 640 126 626T111 588H12Q14 602 17 621T38 659Q52 675 83 690T166 705Q205 705 233 695T280 668T308 631T317 591Q317 565 307 548T282 520T253 504T230 496Q281 482 301 455T321 396Q321 369 309 346T274 307T222 281T157 272Q150 272 135 273T101 278T64 290T33 314Q13 337 10 359T6 395H105Z"  />
<glyph unicode="&#xB4;" horiz-adv-x="278" d="M152 585H72L155 730H289L152 585Z"  />
<glyph unicode="&#xB5;" horiz-adv-x="611" d="M71 505H199V261Q199 226 201 196T214 145T242 111T294 98Q330 98 349 113T378 152T390 204T392 258V505H521V0H411V60Q405 51 396 39T374 17T342 -1T297 -9Q273 -9 257 -4T228 9T209 25T196 41V-212H70L71 505Z"  />
<glyph unicode="&#xB6;" horiz-adv-x="556" d="M520 609V-187H395V609H300V-187H175V238Q149 240 116 248T48 287Q26 307 12 330T-9 376T-19 422T-22 462Q-22 507 -8 552T39 632T121 690T242 712H571V609H520Z"  />
<glyph unicode="&#xB7;" horiz-adv-x="278" d="M74 346H201V213H74V346Z"  />
<glyph unicode="&#xB8;" horiz-adv-x="278" d="M36 -153Q53 -161 71 -166T106 -171Q132 -171 146 -161T161 -133Q161 -122 152 -109T117 -96Q103 -96 94 -99T76 -105L56 -84L120 6H167L119 -58Q127 -56 134 -55T154 -54Q179 -54 195 -61T220 -80T234 -103T238 -126Q238 -153 225 -171T193 -199T151 -213T112 -217Q77 -217 51 -209T15 -195L36 -153Z"  />
<glyph unicode="&#xB9;" horiz-adv-x="333" d="M48 637Q91 654 123 673T168 700H252V281H154V607Q128 590 100 576T48 553V637Z"  />
<glyph unicode="&#xBA;" horiz-adv-x="367" d="M14 541Q14 614 58 658T184 702Q227 702 259 690T312 657T343 606T354 543Q354 510 344 481T312 430T258 394T182 381Q135 381 103 395T51 433T23 484T14 541ZM113 540Q113 443 184 443Q220 443 238 467T256 545Q256 590 240 616T185 643Q160 643 146 633T125 607T115 573T113 540Z"  />
<glyph unicode="&#xBB;" horiz-adv-x="556" d="M32 56L127 245L32 442H164L273 245L164 56H32ZM275 56L370 245L275 442H407L516 245L407 56H275Z"  />
<glyph unicode="&#xBC;" horiz-adv-x="834" d="M486 91V172L668 419H766L764 160H826V91H763V0H665V91H486ZM559 158H670L674 315L559 158ZM558 725H641L224 -28H142L558 725ZM9 637Q52 654 84 673T129 700H213V281H115V607Q89 590 61 576T9 553V637Z"  />
<glyph unicode="&#xBD;" horiz-adv-x="834" d="M557 725H639L222 -28H140L557 725ZM22 637Q65 654 97 673T142 700H226V281H128V607Q102 590 74 576T22 553V637ZM499 300Q499 313 502 334T526 378Q548 404 584 414T656 424Q727 424 767 393T808 310Q808 292 804 277T790 246T762 211T717 166Q685 136 657 114T594 65Q613 66 639 66T695 67T754 68T811 69V0H493V85L611 183Q635 203 655 222T692 264Q703 279 706 290T710 310Q710 331 696 346T658 361Q627 361 614 343T598 300H499Z"  />
<glyph unicode="&#xBE;" horiz-adv-x="834" d="M474 91V172L656 419H755L752 160H814V91H752V0H653V91H474ZM540 158H651L654 269Q654 271 654 277T654 291T654 305T655 315L540 158ZM602 725H684L268 -28H186L602 725ZM122 395Q123 390 124 381T132 362T150 346T182 339Q202 339 220 351T239 396Q239 419 229 431T203 450T167 457T128 458V528Q147 528 167 530T203 538T230 557T241 590Q241 615 224 627T184 640Q159 640 144 626T128 588H30Q32 602 35 621T56 659Q70 675 101 690T184 705Q223 705 251 695T298 668T326 631T335 591Q335 565 325 548T300 520T271 504T248 496Q299 482 319 455T339 396Q339 369 327 346T292 307T240 281T175 272Q168 272 153 273T119 278T82 290T51 314Q31 337 28 359T24 395H122Z"  />
<glyph unicode="&#xBF;" horiz-adv-x="500" d="M352 366V273Q352 265 352 256T348 237T337 214T315 185L271 136Q241 101 218 65T195 -9Q195 -18 198 -34T213 -67T249 -96T315 -108Q349 -108 378 -102T448 -84V-189Q420 -196 380 -202T280 -208Q235 -208 193 -198T117 -165T63 -107T42 -21Q42 -7 45 19T69 74Q81 90 89 101T103 119T113 130T122 138L178 189Q198 207 210 219T228 242T237 263T239 285V366H352ZM355 408H235V528H355V408Z"  />
<glyph unicode="&#xC0;" horiz-adv-x="706" d="M450 723L701 0H545L493 156H207L153 0H5L266 723H450ZM454 273L354 581L247 273H454ZM434 773H349L210 918H350L434 773Z"  />
<glyph unicode="&#xC1;" horiz-adv-x="706" d="M450 723L701 0H545L493 156H207L153 0H5L266 723H450ZM454 273L354 581L247 273H454ZM374 773H294L377 918H511L374 773Z"  />
<glyph unicode="&#xC2;" horiz-adv-x="706" d="M450 723L701 0H545L493 156H207L153 0H5L266 723H450ZM454 273L354 581L247 273H454ZM310 918H413L517 773H428L360 858L290 773H200L310 918Z"  />
<glyph unicode="&#xC3;" horiz-adv-x="706" d="M450 723L701 0H545L493 156H207L153 0H5L266 723H450ZM454 273L354 581L247 273H454ZM180 781Q188 838 220 871T298 904Q314 904 330 899T348 893L405 871Q410 869 418 867T439 865Q461 865 471 878T486 911H537Q534 884 526 861T497 818Q486 807 469 798T425 789Q408 789 395 793T373 800L330 816Q321 819 308 822T285 826Q272 826 257 818T232 781H180Z"  />
<glyph unicode="&#xC4;" horiz-adv-x="706" d="M450 723L701 0H545L493 156H207L153 0H5L266 723H450ZM454 273L354 581L247 273H454ZM394 896H496V778H394V896ZM222 896H324V778H222V896Z"  />
<glyph unicode="&#xC5;" horiz-adv-x="706" d="M450 723L701 0H545L493 156H207L153 0H5L266 723H450ZM454 273L354 581L247 273H454ZM361 939Q383 939 401 931T433 909T454 877T462 837Q462 816 454 798T433 765T401 743T361 735Q340 735 322 743T290 764T268 797T260 837Q260 858 268 876T289 909T321 931T361 939ZM361 891Q339 891 324 876T308 837Q308 815 323 800T361 784Q384 784 399 799T415 837Q415 859 400 875T361 891Z"  />
<glyph unicode="&#xC6;" horiz-adv-x="1000" d="M392 721H939V604H604L630 426H921V310H646L674 120H948V0H532L510 157H238L159 0H-8L392 721ZM495 271L453 585L299 271H495Z"  />
<glyph unicode="&#xC7;" horiz-adv-x="667" d="M640 234Q639 215 636 190T622 136T589 79T529 26Q505 11 481 3T435 -10T395 -16T365 -17L331 -62Q339 -60 346 -59T367 -58Q392 -58 408 -65T433 -84T446 -107T450 -130Q450 -157 437 -175T405 -203T363 -217T324 -221Q289 -221 263 -213T227 -199L248 -157Q266 -165 284 -170T318 -175Q344 -175 359 -165T374 -137Q374 -126 365 -113T329 -100Q315 -100 306 -103T288 -109L268 -88L320 -14Q250 -7 202 17T122 77Q95 108 78 142T51 212T38 281T34 346Q34 432 57 502T123 622T227 699T365 727Q424 727 473 710T558 661T614 585T634 487H476Q475 496 472 517T456 559T421 597T359 614Q316 614 285 593T235 536T206 450T196 345Q196 334 196 312T201 262T215 205T241 152T283 113T347 97Q371 97 394 105T435 129T464 172T477 234H640Z"  />
<glyph unicode="&#xC8;" horiz-adv-x="603" d="M74 723H558V605H229V433H537V315H229V120H569V0H74V723ZM371 773H286L147 918H287L371 773Z"  />
<glyph unicode="&#xC9;" horiz-adv-x="603" d="M74 723H558V605H229V433H537V315H229V120H569V0H74V723ZM311 773H231L314 918H448L311 773Z"  />
<glyph unicode="&#xCA;" horiz-adv-x="603" d="M74 723H558V605H229V433H537V315H229V120H569V0H74V723ZM247 918H350L454 773H365L297 858L227 773H137L247 918Z"  />
<glyph unicode="&#xCB;" horiz-adv-x="603" d="M74 723H558V605H229V433H537V315H229V120H569V0H74V723ZM331 896H433V778H331V896ZM159 896H261V778H159V896Z"  />
<glyph unicode="&#xCC;" horiz-adv-x="289" d="M60 725H215V0H60V725ZM212 773H127L-12 918H128L212 773Z"  />
<glyph unicode="&#xCD;" horiz-adv-x="289" d="M60 725H215V0H60V725ZM152 773H72L155 918H289L152 773Z"  />
<glyph unicode="&#xCE;" horiz-adv-x="289" d="M60 725H215V0H60V725ZM97 918H200L304 773H215L147 858L77 773H-13L97 918Z"  />
<glyph unicode="&#xCF;" horiz-adv-x="289" d="M60 725H215V0H60V725ZM179 896H281V778H179V896ZM7 896H109V778H7V896Z"  />
<glyph unicode="&#xD0;" horiz-adv-x="722" d="M65 353H0V440H65V721L304 720Q319 720 347 719T411 712T483 692T553 655Q587 630 610 597T648 527T669 450T676 371Q676 288 656 225T600 116T518 44T420 8Q410 6 399 5T372 2T337 1T290 0H65V353ZM222 119Q235 118 252 118T283 117Q333 117 375 125T451 167Q474 190 487 219T506 278T514 333T516 371Q516 409 509 445T487 510T446 562T384 594Q372 597 358 599T324 603T280 605T222 604V440H367V353H222V119Z"  />
<glyph unicode="&#xD1;" horiz-adv-x="773" d="M72 723H296L567 154V723H711V0H498L218 600V0H72V723ZM203 781Q211 838 243 871T321 904Q337 904 353 899T371 893L428 871Q433 869 441 867T462 865Q484 865 494 878T509 911H560Q557 884 549 861T520 818Q509 807 492 798T448 789Q431 789 418 793T396 800L353 816Q344 819 331 822T308 826Q295 826 280 818T255 781H203Z"  />
<glyph unicode="&#xD2;" horiz-adv-x="778" d="M42 351Q42 423 59 492T118 616T225 704T389 738Q418 738 451 734T518 719T584 689T643 640Q672 607 690 571T718 498T731 429T735 368Q735 329 729 289T712 212T683 143T644 85Q614 51 579 31T508 0T441 -14T387 -18Q315 -18 248 5T131 81Q101 112 84 149T57 222T45 292T42 351ZM204 356Q204 304 215 250T258 154Q275 131 305 114T389 96Q481 96 524 163Q533 176 542 194T557 237T568 294T573 370Q573 396 570 431T555 499Q532 566 489 596T390 627Q346 627 313 611T257 566Q226 528 215 473T204 356ZM462 773H377L238 918H378L462 773Z"  />
<glyph unicode="&#xD3;" horiz-adv-x="778" d="M42 351Q42 423 59 492T118 616T225 704T389 738Q418 738 451 734T518 719T584 689T643 640Q672 607 690 571T718 498T731 429T735 368Q735 329 729 289T712 212T683 143T644 85Q614 51 579 31T508 0T441 -14T387 -18Q315 -18 248 5T131 81Q101 112 84 149T57 222T45 292T42 351ZM204 356Q204 304 215 250T258 154Q275 131 305 114T389 96Q481 96 524 163Q533 176 542 194T557 237T568 294T573 370Q573 396 570 431T555 499Q532 566 489 596T390 627Q346 627 313 611T257 566Q226 528 215 473T204 356ZM402 773H322L405 918H539L402 773Z"  />
<glyph unicode="&#xD4;" horiz-adv-x="778" d="M42 351Q42 423 59 492T118 616T225 704T389 738Q418 738 451 734T518 719T584 689T643 640Q672 607 690 571T718 498T731 429T735 368Q735 329 729 289T712 212T683 143T644 85Q614 51 579 31T508 0T441 -14T387 -18Q315 -18 248 5T131 81Q101 112 84 149T57 222T45 292T42 351ZM204 356Q204 304 215 250T258 154Q275 131 305 114T389 96Q481 96 524 163Q533 176 542 194T557 237T568 294T573 370Q573 396 570 431T555 499Q532 566 489 596T390 627Q346 627 313 611T257 566Q226 528 215 473T204 356ZM338 918H441L545 773H456L388 858L318 773H228L338 918Z"  />
<glyph unicode="&#xD5;" horiz-adv-x="778" d="M42 351Q42 423 59 492T118 616T225 704T389 738Q418 738 451 734T518 719T584 689T643 640Q672 607 690 571T718 498T731 429T735 368Q735 329 729 289T712 212T683 143T644 85Q614 51 579 31T508 0T441 -14T387 -18Q315 -18 248 5T131 81Q101 112 84 149T57 222T45 292T42 351ZM204 356Q204 304 215 250T258 154Q275 131 305 114T389 96Q481 96 524 163Q533 176 542 194T557 237T568 294T573 370Q573 396 570 431T555 499Q532 566 489 596T390 627Q346 627 313 611T257 566Q226 528 215 473T204 356ZM208 781Q216 838 248 871T326 904Q342 904 358 899T376 893L433 871Q438 869 446 867T467 865Q489 865 499 878T514 911H565Q562 884 554 861T525 818Q514 807 497 798T453 789Q436 789 423 793T401 800L358 816Q349 819 336 822T313 826Q300 826 285 818T260 781H208Z"  />
<glyph unicode="&#xD6;" horiz-adv-x="778" d="M42 351Q42 423 59 492T118 616T225 704T389 738Q418 738 451 734T518 719T584 689T643 640Q672 607 690 571T718 498T731 429T735 368Q735 329 729 289T712 212T683 143T644 85Q614 51 579 31T508 0T441 -14T387 -18Q315 -18 248 5T131 81Q101 112 84 149T57 222T45 292T42 351ZM204 356Q204 304 215 250T258 154Q275 131 305 114T389 96Q481 96 524 163Q533 176 542 194T557 237T568 294T573 370Q573 396 570 431T555 499Q532 566 489 596T390 627Q346 627 313 611T257 566Q226 528 215 473T204 356ZM422 896H524V778H422V896ZM250 896H352V778H250V896Z"  />
<glyph unicode="&#xD7;" horiz-adv-x="584" d="M200 266L33 434L125 526L292 358L459 526L551 434L384 266L551 99L459 7L292 175L125 7L33 99L200 266Z"  />
<glyph unicode="&#xD8;" horiz-adv-x="778" d="M710 765L757 718L662 614Q702 560 717 496T733 365Q733 267 707 195T634 76T524 6T388 -18Q323 -18 261 0T150 61L50 -47L2 0L105 111Q68 163 54 225T40 351Q40 390 46 434T66 521T106 603T170 672T262 720T387 738Q450 738 509 722T616 664L710 765ZM523 564Q506 587 486 600T446 620T412 628T387 630Q340 630 299 607T233 534Q224 514 218 490T209 441T204 394T203 356Q203 303 208 275T218 235L523 564ZM248 166Q253 158 262 146T288 123T328 104T388 95Q441 95 476 117T532 177T562 265T571 373Q571 405 568 437T555 499L248 166Z"  />
<glyph unicode="&#xD9;" horiz-adv-x="746" d="M227 721V281Q227 251 230 220T249 162T295 120T384 103Q393 103 410 104T448 111T489 130T524 166Q530 174 534 184T541 208T545 242T547 289V721H698V270Q698 189 669 135T594 47T492 0T381 -14Q354 -14 318 -10T244 7T170 45T109 111Q83 153 78 195T72 289V721H227ZM450 773H365L226 918H366L450 773Z"  />
<glyph unicode="&#xDA;" horiz-adv-x="746" d="M227 721V281Q227 251 230 220T249 162T295 120T384 103Q393 103 410 104T448 111T489 130T524 166Q530 174 534 184T541 208T545 242T547 289V721H698V270Q698 189 669 135T594 47T492 0T381 -14Q354 -14 318 -10T244 7T170 45T109 111Q83 153 78 195T72 289V721H227ZM390 773H310L393 918H527L390 773Z"  />
<glyph unicode="&#xDB;" horiz-adv-x="746" d="M227 721V281Q227 251 230 220T249 162T295 120T384 103Q393 103 410 104T448 111T489 130T524 166Q530 174 534 184T541 208T545 242T547 289V721H698V270Q698 189 669 135T594 47T492 0T381 -14Q354 -14 318 -10T244 7T170 45T109 111Q83 153 78 195T72 289V721H227ZM326 918H429L533 773H444L376 858L306 773H216L326 918Z"  />
<glyph unicode="&#xDC;" horiz-adv-x="746" d="M227 721V281Q227 251 230 220T249 162T295 120T384 103Q393 103 410 104T448 111T489 130T524 166Q530 174 534 184T541 208T545 242T547 289V721H698V270Q698 189 669 135T594 47T492 0T381 -14Q354 -14 318 -10T244 7T170 45T109 111Q83 153 78 195T72 289V721H227ZM410 896H512V778H410V896ZM238 896H340V778H238V896Z"  />
<glyph unicode="&#xDD;" horiz-adv-x="667" d="M197 720L346 391L498 720H657L413 263V0H260V265L16 720H197ZM379 773H299L382 918H516L379 773Z"  />
<glyph unicode="&#xDE;" horiz-adv-x="611" d="M65 721H218V611H288Q324 611 357 609T421 601T478 581T527 545Q554 518 568 482T583 394Q583 337 561 287T491 204Q473 191 450 184T404 174T358 171T320 170H222V0H65V721ZM218 285H280Q289 285 301 285T326 286T352 291T374 300Q402 316 412 344T423 396Q423 432 409 452T375 481T334 491T296 493H218V285Z"  />
<glyph unicode="&#xDF;" horiz-adv-x="667" d="M59 539Q59 582 70 613T96 664T125 694T145 708Q181 729 222 735T305 742Q346 742 387 734T462 707T516 661T537 592Q537 574 533 559T519 529T491 498T445 464Q434 456 424 447T414 417Q414 406 421 395T461 365L539 318Q555 309 571 298T600 269T621 226T630 166Q630 101 607 65T552 10T486 -12T429 -16Q406 -16 377 -13T321 7T276 55T252 144H383Q383 114 399 98Q406 90 415 87T435 83Q454 83 472 99T491 154Q491 178 480 200T434 243L356 290Q336 302 321 312T295 335T279 362T274 398Q274 427 288 456T349 524Q366 538 377 552T389 588Q389 613 370 631T312 650Q291 650 276 645T250 633T233 619T223 607Q209 587 207 563T204 525V0H59V539Z"  />
<glyph unicode="&#xE0;" horiz-adv-x="556" d="M368 0Q364 23 364 40T363 69Q342 39 320 23T277 -1T240 -10T212 -12Q157 -12 129 1T86 28Q63 51 53 80T42 139Q42 154 45 174T60 216T93 259T149 296Q172 306 199 312T254 320T306 323T349 324Q349 349 348 363T342 391Q337 405 328 413T310 425T291 431T276 433Q260 433 245 426T220 405Q212 392 211 381T209 360H64Q64 370 65 384T73 415T90 448T121 479Q156 504 197 512T274 520Q290 520 313 518T361 509T410 490T454 455Q467 440 474 422T484 386T488 355T489 331L490 128Q490 96 492 64T502 0H368ZM349 238Q313 241 284 237T232 223T198 195T186 156Q186 143 190 131T204 108T226 91T258 84Q278 84 294 92T321 113Q341 137 345 167T349 238ZM351 585H266L127 730H267L351 585Z"  />
<glyph unicode="&#xE1;" horiz-adv-x="556" d="M368 0Q364 23 364 40T363 69Q342 39 320 23T277 -1T240 -10T212 -12Q157 -12 129 1T86 28Q63 51 53 80T42 139Q42 154 45 174T60 216T93 259T149 296Q172 306 199 312T254 320T306 323T349 324Q349 349 348 363T342 391Q337 405 328 413T310 425T291 431T276 433Q260 433 245 426T220 405Q212 392 211 381T209 360H64Q64 370 65 384T73 415T90 448T121 479Q156 504 197 512T274 520Q290 520 313 518T361 509T410 490T454 455Q467 440 474 422T484 386T488 355T489 331L490 128Q490 96 492 64T502 0H368ZM349 238Q313 241 284 237T232 223T198 195T186 156Q186 143 190 131T204 108T226 91T258 84Q278 84 294 92T321 113Q341 137 345 167T349 238ZM291 585H211L294 730H428L291 585Z"  />
<glyph unicode="&#xE2;" horiz-adv-x="556" d="M368 0Q364 23 364 40T363 69Q342 39 320 23T277 -1T240 -10T212 -12Q157 -12 129 1T86 28Q63 51 53 80T42 139Q42 154 45 174T60 216T93 259T149 296Q172 306 199 312T254 320T306 323T349 324Q349 349 348 363T342 391Q337 405 328 413T310 425T291 431T276 433Q260 433 245 426T220 405Q212 392 211 381T209 360H64Q64 370 65 384T73 415T90 448T121 479Q156 504 197 512T274 520Q290 520 313 518T361 509T410 490T454 455Q467 440 474 422T484 386T488 355T489 331L490 128Q490 96 492 64T502 0H368ZM349 238Q313 241 284 237T232 223T198 195T186 156Q186 143 190 131T204 108T226 91T258 84Q278 84 294 92T321 113Q341 137 345 167T349 238ZM227 730H330L434 585H345L277 670L207 585H117L227 730Z"  />
<glyph unicode="&#xE3;" horiz-adv-x="556" d="M368 0Q364 23 364 40T363 69Q342 39 320 23T277 -1T240 -10T212 -12Q157 -12 129 1T86 28Q63 51 53 80T42 139Q42 154 45 174T60 216T93 259T149 296Q172 306 199 312T254 320T306 323T349 324Q349 349 348 363T342 391Q337 405 328 413T310 425T291 431T276 433Q260 433 245 426T220 405Q212 392 211 381T209 360H64Q64 370 65 384T73 415T90 448T121 479Q156 504 197 512T274 520Q290 520 313 518T361 509T410 490T454 455Q467 440 474 422T484 386T488 355T489 331L490 128Q490 96 492 64T502 0H368ZM349 238Q313 241 284 237T232 223T198 195T186 156Q186 143 190 131T204 108T226 91T258 84Q278 84 294 92T321 113Q341 137 345 167T349 238ZM97 593Q105 649 137 682T215 716Q231 716 247 711T265 705L322 683Q327 681 335 679T356 677Q378 677 388 690T403 723H454Q451 696 443 673T414 630Q403 619 386 610T342 601Q325 601 312 605T290 612L247 628Q238 631 225 634T202 638Q189 638 174 630T149 593H97Z"  />
<glyph unicode="&#xE4;" horiz-adv-x="556" d="M368 0Q364 23 364 40T363 69Q342 39 320 23T277 -1T240 -10T212 -12Q157 -12 129 1T86 28Q63 51 53 80T42 139Q42 154 45 174T60 216T93 259T149 296Q172 306 199 312T254 320T306 323T349 324Q349 349 348 363T342 391Q337 405 328 413T310 425T291 431T276 433Q260 433 245 426T220 405Q212 392 211 381T209 360H64Q64 370 65 384T73 415T90 448T121 479Q156 504 197 512T274 520Q290 520 313 518T361 509T410 490T454 455Q467 440 474 422T484 386T488 355T489 331L490 128Q490 96 492 64T502 0H368ZM349 238Q313 241 284 237T232 223T198 195T186 156Q186 143 190 131T204 108T226 91T258 84Q278 84 294 92T321 113Q341 137 345 167T349 238ZM311 717H413V599H311V717ZM139 717H241V599H139V717Z"  />
<glyph unicode="&#xE5;" horiz-adv-x="556" d="M368 0Q364 23 364 40T363 69Q342 39 320 23T277 -1T240 -10T212 -12Q157 -12 129 1T86 28Q63 51 53 80T42 139Q42 154 45 174T60 216T93 259T149 296Q172 306 199 312T254 320T306 323T349 324Q349 349 348 363T342 391Q337 405 328 413T310 425T291 431T276 433Q260 433 245 426T220 405Q212 392 211 381T209 360H64Q64 370 65 384T73 415T90 448T121 479Q156 504 197 512T274 520Q290 520 313 518T361 509T410 490T454 455Q467 440 474 422T484 386T488 355T489 331L490 128Q490 96 492 64T502 0H368ZM349 238Q313 241 284 237T232 223T198 195T186 156Q186 143 190 131T204 108T226 91T258 84Q278 84 294 92T321 113Q341 137 345 167T349 238ZM278 760Q300 760 318 752T350 730T371 698T379 658Q379 637 371 619T350 586T318 564T278 556Q257 556 239 564T207 585T185 618T177 658Q177 679 185 697T206 730T238 752T278 760ZM278 712Q256 712 241 697T225 658Q225 636 240 621T278 605Q301 605 316 620T332 658Q332 680 317 696T278 712Z"  />
<glyph unicode="&#xE6;" horiz-adv-x="889" d="M838 156Q836 138 829 110T795 51Q765 15 720 0T627 -15Q577 -15 543 -4T487 23T452 53T434 78Q420 62 403 45T363 14T307 -10T232 -19Q182 -19 146 -7T85 26T50 76T38 139Q38 150 40 168T52 208T78 249T126 284Q150 296 180 302T242 312T307 316T370 317Q371 341 368 362T355 400T328 425T286 434Q273 434 260 431T235 419T217 398T208 363H65Q69 407 86 437T130 485T193 512T268 520Q311 520 342 511T394 489T428 463T448 441Q456 450 469 463T503 489T554 511T626 520Q688 520 736 495T813 422Q828 398 836 371T847 318T850 269T851 231H513Q513 224 513 213T515 188T520 160T530 132Q544 103 568 92T616 80Q640 80 655 88T680 109T693 134T699 156H838ZM698 317Q698 327 697 346T687 384T661 417T611 432Q578 432 559 418T529 384T516 346T512 317H698ZM369 231Q358 233 348 233T325 233Q314 233 291 232T243 222T200 197T181 146Q181 129 187 116T205 94T230 81T259 76Q280 76 307 87T349 129Q360 152 363 180T369 231Z"  />
<glyph unicode="&#xE7;" horiz-adv-x="500" d="M480 183Q479 168 477 150T469 112T450 72T415 34Q380 5 347 -3T284 -13L248 -62Q256 -60 263 -59T284 -58Q309 -58 325 -65T350 -84T363 -107T367 -130Q367 -157 354 -175T322 -203T280 -217T241 -221Q206 -221 180 -213T144 -199L165 -157Q183 -165 201 -170T235 -175Q261 -175 276 -165T291 -137Q291 -126 282 -113T246 -100Q232 -100 223 -103T206 -109L185 -88L238 -12Q228 -11 212 -9T178 0T139 20T99 54Q35 127 35 253Q35 339 62 391T128 470T206 506T271 515Q306 515 342 505T409 472T458 413T477 326H332Q331 333 329 348T320 379T301 407T267 419Q241 419 226 402T202 359T192 307T189 258Q189 247 190 227T194 184T205 139T226 103Q237 92 247 89T266 86Q272 86 282 88T303 100T323 129T334 183H480Z"  />
<glyph unicode="&#xE8;" horiz-adv-x="556" d="M184 215Q184 203 185 180T197 135T227 97T287 80Q315 80 339 94T375 150H510Q509 141 508 129T501 102T487 72T462 40Q434 11 388 -4T285 -19Q269 -19 247 -17T200 -8T151 11T107 44Q72 80 57 130T42 241Q42 272 46 305T62 369T94 429T147 480Q176 500 211 511T289 522Q316 522 345 516T401 496T452 459T493 400Q506 374 512 348T521 298T524 252T523 215H184ZM372 308Q372 317 371 335T361 373T334 406T284 421Q260 421 243 412T214 387T196 351T189 308H372ZM351 585H266L127 730H267L351 585Z"  />
<glyph unicode="&#xE9;" horiz-adv-x="556" d="M184 215Q184 203 185 180T197 135T227 97T287 80Q315 80 339 94T375 150H510Q509 141 508 129T501 102T487 72T462 40Q434 11 388 -4T285 -19Q269 -19 247 -17T200 -8T151 11T107 44Q72 80 57 130T42 241Q42 272 46 305T62 369T94 429T147 480Q176 500 211 511T289 522Q316 522 345 516T401 496T452 459T493 400Q506 374 512 348T521 298T524 252T523 215H184ZM372 308Q372 317 371 335T361 373T334 406T284 421Q260 421 243 412T214 387T196 351T189 308H372ZM291 585H211L294 730H428L291 585Z"  />
<glyph unicode="&#xEA;" horiz-adv-x="556" d="M184 215Q184 203 185 180T197 135T227 97T287 80Q315 80 339 94T375 150H510Q509 141 508 129T501 102T487 72T462 40Q434 11 388 -4T285 -19Q269 -19 247 -17T200 -8T151 11T107 44Q72 80 57 130T42 241Q42 272 46 305T62 369T94 429T147 480Q176 500 211 511T289 522Q316 522 345 516T401 496T452 459T493 400Q506 374 512 348T521 298T524 252T523 215H184ZM372 308Q372 317 371 335T361 373T334 406T284 421Q260 421 243 412T214 387T196 351T189 308H372ZM227 730H330L434 585H345L277 670L207 585H117L227 730Z"  />
<glyph unicode="&#xEB;" horiz-adv-x="556" d="M184 215Q184 203 185 180T197 135T227 97T287 80Q315 80 339 94T375 150H510Q509 141 508 129T501 102T487 72T462 40Q434 11 388 -4T285 -19Q269 -19 247 -17T200 -8T151 11T107 44Q72 80 57 130T42 241Q42 272 46 305T62 369T94 429T147 480Q176 500 211 511T289 522Q316 522 345 516T401 496T452 459T493 400Q506 374 512 348T521 298T524 252T523 215H184ZM372 308Q372 317 371 335T361 373T334 406T284 421Q260 421 243 412T214 387T196 351T189 308H372ZM311 717H413V599H311V717ZM139 717H241V599H139V717Z"  />
<glyph unicode="&#xEC;" horiz-adv-x="278" d="M65 506H213V0H65V506ZM212 585H127L-12 730H128L212 585Z"  />
<glyph unicode="&#xED;" horiz-adv-x="278" d="M65 506H213V0H65V506ZM152 585H72L155 730H289L152 585Z"  />
<glyph unicode="&#xEE;" horiz-adv-x="278" d="M65 506H213V0H65V506ZM88 730H191L295 585H206L138 670L68 585H-22L88 730Z"  />
<glyph unicode="&#xEF;" horiz-adv-x="278" d="M65 506H213V0H65V506ZM172 717H274V599H172V717ZM0 717H102V599H0V717Z"  />
<glyph unicode="&#xF0;" horiz-adv-x="611" d="M210 623Q190 633 169 643T112 667L191 757Q249 731 275 717T316 694L395 748L439 714L363 663Q390 643 425 612T490 535T542 426T564 278Q564 216 550 163T504 70T423 9T304 -14Q264 -14 219 -6T136 32Q88 67 68 121T48 236Q48 306 70 353T127 430T203 472T280 485Q307 485 328 480T366 468T393 453T412 439Q401 457 389 475T359 512T317 551T260 593L168 530L124 564L210 623ZM309 81Q344 81 365 97T398 137T413 191T417 246Q417 265 414 291T400 342T368 383T309 400Q267 400 245 379T212 329T200 274T198 236Q198 207 203 179T220 129T254 94T309 81Z"  />
<glyph unicode="&#xF1;" horiz-adv-x="611" d="M67 415Q67 416 67 425T67 448T66 478T64 507H206L210 431Q215 440 226 454T256 483T304 508T374 519Q411 519 438 509T483 485T512 454T528 424Q532 412 535 401T539 373T541 332T542 273V0H391V314Q391 330 390 343T383 369Q375 386 358 399T311 412Q287 412 267 402T234 373Q227 363 222 344T216 296V0H67V415ZM125 593Q133 649 165 682T243 716Q259 716 275 711T293 705L350 683Q355 681 363 679T384 677Q406 677 416 690T431 723H482Q479 696 471 673T442 630Q431 619 414 610T370 601Q353 601 340 605T318 612L275 628Q266 631 253 634T230 638Q217 638 202 630T177 593H125Z"  />
<glyph unicode="&#xF2;" horiz-adv-x="611" d="M42 248Q42 294 55 341T98 428T178 492T303 517Q372 517 421 496T503 438T550 353T565 252Q565 199 550 150T502 64T419 4T300 -18Q246 -18 199 -2T117 48T62 132T42 248ZM194 247Q194 162 222 124T305 85Q329 85 349 93T384 121T406 174T414 258Q414 283 411 311T396 363T362 402T303 418Q262 418 240 398T208 350T196 293T194 247ZM379 585H294L155 730H295L379 585Z"  />
<glyph unicode="&#xF3;" horiz-adv-x="611" d="M42 248Q42 294 55 341T98 428T178 492T303 517Q372 517 421 496T503 438T550 353T565 252Q565 199 550 150T502 64T419 4T300 -18Q246 -18 199 -2T117 48T62 132T42 248ZM194 247Q194 162 222 124T305 85Q329 85 349 93T384 121T406 174T414 258Q414 283 411 311T396 363T362 402T303 418Q262 418 240 398T208 350T196 293T194 247ZM319 585H239L322 730H456L319 585Z"  />
<glyph unicode="&#xF4;" horiz-adv-x="611" d="M42 248Q42 294 55 341T98 428T178 492T303 517Q372 517 421 496T503 438T550 353T565 252Q565 199 550 150T502 64T419 4T300 -18Q246 -18 199 -2T117 48T62 132T42 248ZM194 247Q194 162 222 124T305 85Q329 85 349 93T384 121T406 174T414 258Q414 283 411 311T396 363T362 402T303 418Q262 418 240 398T208 350T196 293T194 247ZM255 730H358L462 585H373L305 670L235 585H145L255 730Z"  />
<glyph unicode="&#xF5;" horiz-adv-x="611" d="M42 248Q42 294 55 341T98 428T178 492T303 517Q372 517 421 496T503 438T550 353T565 252Q565 199 550 150T502 64T419 4T300 -18Q246 -18 199 -2T117 48T62 132T42 248ZM194 247Q194 162 222 124T305 85Q329 85 349 93T384 121T406 174T414 258Q414 283 411 311T396 363T362 402T303 418Q262 418 240 398T208 350T196 293T194 247ZM125 593Q133 649 165 682T243 716Q259 716 275 711T293 705L350 683Q355 681 363 679T384 677Q406 677 416 690T431 723H482Q479 696 471 673T442 630Q431 619 414 610T370 601Q353 601 340 605T318 612L275 628Q266 631 253 634T230 638Q217 638 202 630T177 593H125Z"  />
<glyph unicode="&#xF6;" horiz-adv-x="611" d="M42 248Q42 294 55 341T98 428T178 492T303 517Q372 517 421 496T503 438T550 353T565 252Q565 199 550 150T502 64T419 4T300 -18Q246 -18 199 -2T117 48T62 132T42 248ZM194 247Q194 162 222 124T305 85Q329 85 349 93T384 121T406 174T414 258Q414 283 411 311T396 363T362 402T303 418Q262 418 240 398T208 350T196 293T194 247ZM339 717H441V599H339V717ZM167 717H269V599H167V717Z"  />
<glyph unicode="&#xF7;" horiz-adv-x="584" d="M21 331H554V202H21V331ZM213 151H362V4H213V151ZM213 529H362V382H213V529Z"  />
<glyph unicode="&#xF8;" horiz-adv-x="611" d="M581 512L506 434Q513 425 523 411T542 375T557 323T563 251Q563 196 548 148T501 63T420 5T303 -16Q261 -16 232 -10T181 5T147 24T125 42L50 -36L9 -2L89 84Q83 93 75 107T59 140T46 186T41 247Q41 309 59 358T110 443T192 497T301 516Q345 516 387 506T466 471L540 547L581 512ZM382 385Q371 397 359 404T335 414T316 417T303 418Q262 418 240 398T208 350T196 295T194 254Q194 234 195 220T198 195L382 385ZM216 135Q220 128 226 120T241 104T266 91T302 85Q340 85 362 100T395 140T409 192T412 247Q412 277 410 297T406 330L216 135Z"  />
<glyph unicode="&#xF9;" horiz-adv-x="611" d="M210 505V204Q210 187 211 168T219 132T243 104T289 93Q325 93 344 105T372 139T382 189T384 250V505H536V172Q537 131 537 107T538 69T539 49T539 37Q540 26 540 19T543 0H399L394 67Q388 59 378 46T350 19T307 -3T245 -13Q194 -13 154 7T93 55Q81 70 74 90T64 129T61 165T60 191V505H210ZM379 585H294L155 730H295L379 585Z"  />
<glyph unicode="&#xFA;" horiz-adv-x="611" d="M210 505V204Q210 187 211 168T219 132T243 104T289 93Q325 93 344 105T372 139T382 189T384 250V505H536V172Q537 131 537 107T538 69T539 49T539 37Q540 26 540 19T543 0H399L394 67Q388 59 378 46T350 19T307 -3T245 -13Q194 -13 154 7T93 55Q81 70 74 90T64 129T61 165T60 191V505H210ZM319 585H239L322 730H456L319 585Z"  />
<glyph unicode="&#xFB;" horiz-adv-x="611" d="M210 505V204Q210 187 211 168T219 132T243 104T289 93Q325 93 344 105T372 139T382 189T384 250V505H536V172Q537 131 537 107T538 69T539 49T539 37Q540 26 540 19T543 0H399L394 67Q388 59 378 46T350 19T307 -3T245 -13Q194 -13 154 7T93 55Q81 70 74 90T64 129T61 165T60 191V505H210ZM255 730H358L462 585H373L305 670L235 585H145L255 730Z"  />
<glyph unicode="&#xFC;" horiz-adv-x="611" d="M210 505V204Q210 187 211 168T219 132T243 104T289 93Q325 93 344 105T372 139T382 189T384 250V505H536V172Q537 131 537 107T538 69T539 49T539 37Q540 26 540 19T543 0H399L394 67Q388 59 378 46T350 19T307 -3T245 -13Q194 -13 154 7T93 55Q81 70 74 90T64 129T61 165T60 191V505H210ZM339 717H441V599H339V717ZM167 717H269V599H167V717Z"  />
<glyph unicode="&#xFD;" horiz-adv-x="556" d="M174 505L285 155L398 505H545L354 9L293 -192H144L208 -2L14 505H174ZM306 585H226L309 730H443L306 585Z"  />
<glyph unicode="&#xFE;" horiz-adv-x="611" d="M192 723V433Q209 463 231 480T276 504T316 513T344 515Q395 515 434 497T499 445T540 365T554 262Q554 208 540 159T498 73T429 15T335 -7Q300 -7 276 0T234 18T207 40T192 58V-194H42V723H192ZM296 90Q331 90 352 108T384 153T399 208T403 257Q403 273 401 300T388 354T357 400T300 420Q275 420 254 409T219 379Q203 357 195 326T186 248Q186 228 189 201T203 150T236 108T296 90Z"  />
<glyph unicode="&#xFF;" horiz-adv-x="556" d="M174 505L285 155L398 505H545L354 9L293 -192H144L208 -2L14 505H174ZM311 717H413V599H311V717ZM139 717H241V599H139V717Z"  />
<glyph unicode="&#x100;" horiz-adv-x="706" d="M450 723L701 0H545L493 156H207L153 0H5L266 723H450ZM454 273L354 581L247 273H454ZM183 812V880H525V812H183Z"  />
<glyph unicode="&#x101;" horiz-adv-x="556" d="M368 0Q364 23 364 40T363 69Q342 39 320 23T277 -1T240 -10T212 -12Q157 -12 129 1T86 28Q63 51 53 80T42 139Q42 154 45 174T60 216T93 259T149 296Q172 306 199 312T254 320T306 323T349 324Q349 349 348 363T342 391Q337 405 328 413T310 425T291 431T276 433Q260 433 245 426T220 405Q212 392 211 381T209 360H64Q64 370 65 384T73 415T90 448T121 479Q156 504 197 512T274 520Q290 520 313 518T361 509T410 490T454 455Q467 440 474 422T484 386T488 355T489 331L490 128Q490 96 492 64T502 0H368ZM349 238Q313 241 284 237T232 223T198 195T186 156Q186 143 190 131T204 108T226 91T258 84Q278 84 294 92T321 113Q341 137 345 167T349 238ZM117 624V692H459V624H117Z"  />
<glyph unicode="&#x102;" horiz-adv-x="706" d="M450 723L701 0H545L493 156H207L153 0H5L266 723H450ZM454 273L354 581L247 273H454ZM262 918Q266 893 276 878T298 853T325 841T351 838Q378 838 395 846T421 867T436 894T444 918H505Q503 888 493 862T463 816T415 785T350 773Q312 773 280 787T228 828Q209 852 206 876T201 918H262Z"  />
<glyph unicode="&#x103;" horiz-adv-x="556" d="M368 0Q364 23 364 40T363 69Q342 39 320 23T277 -1T240 -10T212 -12Q157 -12 129 1T86 28Q63 51 53 80T42 139Q42 154 45 174T60 216T93 259T149 296Q172 306 199 312T254 320T306 323T349 324Q349 349 348 363T342 391Q337 405 328 413T310 425T291 431T276 433Q260 433 245 426T220 405Q212 392 211 381T209 360H64Q64 370 65 384T73 415T90 448T121 479Q156 504 197 512T274 520Q290 520 313 518T361 509T410 490T454 455Q467 440 474 422T484 386T488 355T489 331L490 128Q490 96 492 64T502 0H368ZM349 238Q313 241 284 237T232 223T198 195T186 156Q186 143 190 131T204 108T226 91T258 84Q278 84 294 92T321 113Q341 137 345 167T349 238ZM196 730Q200 705 210 690T232 665T259 653T285 650Q312 650 329 658T355 679T370 706T378 730H439Q437 700 427 674T397 628T349 597T284 585Q246 585 214 599T162 640Q143 664 140 688T135 730H196Z"  />
<glyph unicode="&#x104;" horiz-adv-x="706" d="M628 -191Q614 -199 592 -208T535 -217Q487 -217 463 -196T439 -142Q439 -97 472 -60T556 0H545L493 156H207L153 0H5L266 722H450L701 0H599Q568 -21 547 -42T526 -97Q526 -120 534 -132T553 -151T574 -158T587 -159Q602 -159 611 -156T628 -147V-191ZM454 273L354 581L247 273H454Z"  />
<glyph unicode="&#x105;" horiz-adv-x="556" d="M477 -191Q463 -199 441 -208T384 -217Q336 -217 312 -196T288 -142Q288 -97 321 -60T405 0H368Q364 23 364 40T363 69Q342 39 320 23T277 -1T240 -10T212 -12Q157 -12 129 1T86 28Q63 51 53 80T42 139Q42 154 45 174T60 216T93 259T149 296Q172 306 199 311T254 320T306 323T349 324Q349 349 348 363T342 391Q337 404 328 412T310 425T291 431T276 433Q260 433 245 426T220 405Q212 392 211 381T209 360H64Q64 370 65 384T73 415T90 448T121 479Q156 504 197 512T274 520Q290 520 313 518T361 509T410 490T454 455Q467 440 474 422T484 387T488 355T489 331L490 128Q490 96 492 64T502 0H448Q417 -21 396 -42T375 -97Q375 -120 383 -132T402 -151T423 -158T436 -159Q451 -159 460 -156T477 -147V-191ZM349 238Q313 241 284 237T232 223T198 195T186 156Q186 143 190 131T204 108T226 91T258 84Q278 84 294 92T321 113Q341 137 345 166T349 238Z"  />
<glyph unicode="&#x106;" horiz-adv-x="667" d="M476 487Q475 496 472 517T456 559T421 597T359 614Q316 614 285 593T235 536T206 450T196 345Q196 334 196 312T201 262T215 205T241 152T283 113T347 97Q371 97 394 105T435 129T464 172T477 234H640Q639 218 637 198T629 156T610 110T575 64Q551 39 525 24T471 -1T416 -13T364 -17Q271 -17 208 14T106 97T51 214T34 346Q34 432 57 502T123 622T227 699T365 727Q424 727 473 710T558 661T614 585T634 487H476ZM371 773H291L374 918H508L371 773Z"  />
<glyph unicode="&#x107;" horiz-adv-x="500" d="M332 326Q331 333 329 348T320 379T301 407T267 419Q241 419 226 402T202 359T192 307T189 258Q189 247 190 227T194 184T205 139T226 103Q237 92 247 89T266 86Q272 86 282 88T303 100T323 129T334 183H480Q479 168 477 150T469 113T450 73T415 34Q388 11 354 -1T271 -13Q220 -13 177 1T99 54Q66 92 51 142T35 253Q35 339 62 391T128 470T206 506T271 515Q306 515 342 505T409 472T458 413T477 326H332ZM300 585H220L303 730H437L300 585Z"  />
<glyph unicode="&#x108;" horiz-adv-x="667" d="M476 487Q475 496 472 517T456 559T421 597T359 614Q316 614 285 593T235 536T206 450T196 345Q196 334 196 312T201 262T215 205T241 152T283 113T347 97Q371 97 394 105T435 129T464 172T477 234H640Q639 218 637 198T629 156T610 110T575 64Q551 39 525 24T471 -1T416 -13T364 -17Q271 -17 208 14T106 97T51 214T34 346Q34 432 57 502T123 622T227 699T365 727Q424 727 473 710T558 661T614 585T634 487H476ZM311 918H414L518 773H429L361 858L291 773H201L311 918Z"  />
<glyph unicode="&#x109;" horiz-adv-x="500" d="M332 326Q331 333 329 348T320 379T301 407T267 419Q241 419 226 402T202 359T192 307T189 258Q189 247 190 227T194 184T205 139T226 103Q237 92 247 89T266 86Q272 86 282 88T303 100T323 129T334 183H480Q479 168 477 150T469 113T450 73T415 34Q388 11 354 -1T271 -13Q220 -13 177 1T99 54Q66 92 51 142T35 253Q35 339 62 391T128 470T206 506T271 515Q306 515 342 505T409 472T458 413T477 326H332ZM220 730H323L427 585H338L270 670L200 585H110L220 730Z"  />
<glyph unicode="&#x10A;" horiz-adv-x="667" d="M476 487Q475 496 472 517T456 559T421 597T359 614Q316 614 285 593T235 536T206 450T196 345Q196 334 196 312T201 262T215 205T241 152T283 113T347 97Q371 97 394 105T435 129T464 172T477 234H640Q639 218 637 198T629 156T610 110T575 64Q551 39 525 24T471 -1T416 -13T364 -17Q271 -17 208 14T106 97T51 214T34 346Q34 432 57 502T123 622T227 699T365 727Q424 727 473 710T558 661T614 585T634 487H476ZM304 905H406V787H304V905Z"  />
<glyph unicode="&#x10B;" horiz-adv-x="500" d="M332 326Q331 333 329 348T320 379T301 407T267 419Q241 419 226 402T202 359T192 307T189 258Q189 247 190 227T194 184T205 139T226 103Q237 92 247 89T266 86Q272 86 282 88T303 100T323 129T334 183H480Q479 168 477 150T469 113T450 73T415 34Q388 11 354 -1T271 -13Q220 -13 177 1T99 54Q66 92 51 142T35 253Q35 339 62 391T128 470T206 506T271 515Q306 515 342 505T409 472T458 413T477 326H332ZM218 717H320V599H218V717Z"  />
<glyph unicode="&#x10C;" horiz-adv-x="667" d="M476 487Q475 496 472 517T456 559T421 597T359 614Q316 614 285 593T235 536T206 450T196 345Q196 334 196 312T201 262T215 205T241 152T283 113T347 97Q371 97 394 105T435 129T464 172T477 234H640Q639 218 637 198T629 156T610 110T575 64Q551 39 525 24T471 -1T416 -13T364 -17Q271 -17 208 14T106 97T51 214T34 346Q34 432 57 502T123 622T227 699T365 727Q424 727 473 710T558 661T614 585T634 487H476ZM520 918L414 773H297L193 918H287L357 827L427 918H520Z"  />
<glyph unicode="&#x10D;" horiz-adv-x="500" d="M332 326Q331 333 329 348T320 379T301 407T267 419Q241 419 226 402T202 359T192 307T189 258Q189 247 190 227T194 184T205 139T226 103Q237 92 247 89T266 86Q272 86 282 88T303 100T323 129T334 183H480Q479 168 477 150T469 113T450 73T415 34Q388 11 354 -1T271 -13Q220 -13 177 1T99 54Q66 92 51 142T35 253Q35 339 62 391T128 470T206 506T271 515Q306 515 342 505T409 472T458 413T477 326H332ZM436 730L330 585H213L109 730H203L273 639L343 730H436Z"  />
<glyph unicode="&#x10E;" horiz-adv-x="722" d="M65 721L304 720Q319 720 347 719T411 712T483 692T553 655Q587 630 610 597T648 527T669 450T676 371Q676 288 656 225T600 116T518 44T420 8Q410 6 399 5T372 2T337 1T290 0H65V721ZM222 119Q235 118 252 118T283 117Q333 117 375 125T451 167Q474 190 487 219T506 278T514 333T516 371Q516 409 509 445T487 510T446 562T384 594Q372 597 358 599T324 603T280 605T222 604V119ZM501 918L395 773H278L174 918H268L338 827L408 918H501Z"  />
<glyph unicode="&#x10F;" horiz-adv-x="611" d="M399 722H548V82Q548 59 549 37T552 0H402L398 73Q390 59 380 45T347 16Q319 -2 293 -6T249 -10Q147 -10 91 56T34 241Q34 304 50 354T96 439T166 493T257 512Q291 512 315 504T357 484T384 462T399 443V722ZM184 245Q184 213 189 185T207 134T238 99T286 86Q318 86 343 103T380 143Q397 175 400 209T404 262Q404 337 375 376T294 415Q257 415 235 396T202 349T188 293T184 245ZM725 722L646 563H579L619 722H725Z"  />
<glyph unicode="&#x110;" horiz-adv-x="722" d="M65 353H0V440H65V722H304Q319 722 347 721T410 713T482 693T553 655Q587 630 610 597T648 527T669 450T676 371Q676 288 656 225T600 116T518 44T420 8Q400 4 372 2T290 0H65V353ZM222 119Q235 118 252 118T283 117Q334 117 375 125T451 167Q474 190 487 219T506 278T514 333T516 371Q516 409 509 445T487 510T446 562T384 594Q372 597 358 599T324 603T280 605T222 604V440H367V353H222V119Z"  />
<glyph unicode="&#x111;" horiz-adv-x="611" d="M548 568V82Q548 59 549 37T552 0H402L398 73Q390 59 380 45T347 16Q319 -2 293 -6T249 -10Q146 -10 90 55T34 241Q34 304 50 354T96 439T166 493T257 512Q291 512 315 504T357 484T384 462T399 443V568H258V621H399V722H548V621H603V568H548ZM184 245Q184 213 189 185T207 134T238 99T286 86Q318 86 343 103T380 143Q397 175 400 209T404 262Q404 337 375 376T294 415Q257 415 235 396T202 349T188 293T184 245Z"  />
<glyph unicode="&#x112;" horiz-adv-x="603" d="M74 723H558V605H229V433H537V315H229V120H569V0H74V723ZM140 812V880H482V812H140Z"  />
<glyph unicode="&#x113;" horiz-adv-x="556" d="M184 215Q184 203 185 180T197 135T227 97T287 80Q315 80 339 94T375 150H510Q509 141 508 129T501 102T487 72T462 40Q434 11 388 -4T285 -19Q269 -19 247 -17T200 -8T151 11T107 44Q72 80 57 130T42 241Q42 272 46 305T62 369T94 429T147 480Q176 500 211 511T289 522Q316 522 345 516T401 496T452 459T493 400Q506 374 512 348T521 298T524 252T523 215H184ZM372 308Q372 317 371 335T361 373T334 406T284 421Q260 421 243 412T214 387T196 351T189 308H372ZM117 624V692H459V624H117Z"  />
<glyph unicode="&#x114;" horiz-adv-x="603" d="M74 723H558V605H229V433H537V315H229V120H569V0H74V723ZM223 918Q227 893 237 878T259 853T286 841T312 838Q339 838 356 846T382 867T397 894T405 918H466Q464 888 454 862T424 816T376 785T311 773Q273 773 241 787T189 828Q170 852 167 876T162 918H223Z"  />
<glyph unicode="&#x115;" horiz-adv-x="556" d="M184 215Q184 203 185 180T197 135T227 97T287 80Q315 80 339 94T375 150H510Q509 141 508 129T501 102T487 72T462 40Q434 11 388 -4T285 -19Q269 -19 247 -17T200 -8T151 11T107 44Q72 80 57 130T42 241Q42 272 46 305T62 369T94 429T147 480Q176 500 211 511T289 522Q316 522 345 516T401 496T452 459T493 400Q506 374 512 348T521 298T524 252T523 215H184ZM372 308Q372 317 371 335T361 373T334 406T284 421Q260 421 243 412T214 387T196 351T189 308H372ZM194 730Q198 705 208 690T230 665T257 653T283 650Q310 650 327 658T353 679T368 706T376 730H437Q435 700 425 674T395 628T347 597T282 585Q244 585 212 599T160 640Q141 664 138 688T133 730H194Z"  />
<glyph unicode="&#x116;" horiz-adv-x="603" d="M74 723H558V605H229V433H537V315H229V120H569V0H74V723ZM271 905H373V787H271V905Z"  />
<glyph unicode="&#x117;" horiz-adv-x="556" d="M184 215Q184 203 185 180T197 135T227 97T287 80Q315 80 339 94T375 150H510Q509 141 508 129T501 102T487 72T462 40Q434 11 388 -4T285 -19Q269 -19 247 -17T200 -8T151 11T107 44Q72 80 57 130T42 241Q42 272 46 305T62 369T94 429T147 480Q176 500 211 511T289 522Q316 522 345 516T401 496T452 459T493 400Q506 374 512 348T521 298T524 252T523 215H184ZM372 308Q372 317 371 335T361 373T334 406T284 421Q260 421 243 412T214 387T196 351T189 308H372ZM241 717H343V599H241V717Z"  />
<glyph unicode="&#x118;" horiz-adv-x="603" d="M66 722H550V605H221V433H529V315H221V120H561V0H523Q492 -21 471 -42T450 -97Q450 -120 458 -132T477 -151T498 -158T511 -159Q526 -159 535 -156T552 -147V-191Q538 -199 516 -208T459 -217Q411 -217 387 -196T363 -142Q363 -97 396 -60T480 0H66V722Z"  />
<glyph unicode="&#x119;" horiz-adv-x="556" d="M401 -191Q387 -199 365 -208T308 -217Q260 -217 236 -196T212 -142Q212 -106 234 -74T294 -19H285Q269 -19 247 -17T200 -8T151 11T107 44Q72 80 57 130T42 241Q42 272 46 305T62 369T94 429T147 480Q176 500 211 511T289 522Q316 522 345 516T401 496T452 459T493 400Q506 374 512 348T522 298T525 252T523 215H184Q184 203 185 180T197 135T227 97T287 80Q315 80 339 94T375 150H510Q508 131 501 102T462 40Q443 20 416 8T355 -12Q330 -30 315 -49T299 -97Q299 -120 307 -132T326 -151T347 -158T360 -159Q375 -159 384 -156T401 -147V-191ZM372 308Q372 317 371 335T361 373T334 406T284 421Q260 421 243 412T214 387T196 351T189 308H372Z"  />
<glyph unicode="&#x11A;" horiz-adv-x="603" d="M74 723H558V605H229V433H537V315H229V120H569V0H74V723ZM479 918L373 773H256L152 918H246L316 827L386 918H479Z"  />
<glyph unicode="&#x11B;" horiz-adv-x="556" d="M184 215Q184 203 185 180T197 135T227 97T287 80Q315 80 339 94T375 150H510Q509 141 508 129T501 102T487 72T462 40Q434 11 388 -4T285 -19Q269 -19 247 -17T200 -8T151 11T107 44Q72 80 57 130T42 241Q42 272 46 305T62 369T94 429T147 480Q176 500 211 511T289 522Q316 522 345 516T401 496T452 459T493 400Q506 374 512 348T521 298T524 252T523 215H184ZM372 308Q372 317 371 335T361 373T334 406T284 421Q260 421 243 412T214 387T196 351T189 308H372ZM454 730L348 585H231L127 730H221L291 639L361 730H454Z"  />
<glyph unicode="&#x11C;" horiz-adv-x="778" d="M554 501Q553 515 551 534T534 574Q523 592 508 603T475 620T442 628T413 630Q347 630 306 603T242 534T210 445T202 355Q202 337 204 312T212 261T230 209T262 161Q289 131 328 115T432 99Q460 99 479 100T512 104T535 108T550 113V265H410V385H705V24Q688 18 665 11T611 -2T537 -12T441 -16Q379 -16 332 -9T247 11T183 41T134 80Q104 110 85 145T56 216T42 286T38 350Q38 446 66 519T145 642T265 717T417 743Q487 743 553 722T663 652Q681 631 691 611T706 571T713 534T715 501H554ZM351 918H454L558 773H469L401 858L331 773H241L351 918Z"  />
<glyph unicode="&#x11D;" horiz-adv-x="611" d="M544 503Q541 473 539 445T537 378V5Q537 -65 512 -105T448 -167T365 -193T285 -199Q258 -199 221 -195T150 -175T91 -127T63 -37H205Q206 -43 208 -54T220 -77T246 -98T293 -107Q326 -107 351 -91T385 -41Q387 -32 388 -23T390 -1T391 31T392 79Q374 56 356 42T320 21T286 12T256 10Q202 10 162 31T95 88T56 167T43 258Q43 306 56 351T97 431T164 487T259 508Q293 508 317 500T358 481T384 457T400 436L405 503H544ZM191 258Q191 249 192 225T203 175T233 131T290 111Q329 111 350 130T381 175T392 223T394 255Q394 276 391 303T378 353T347 393T293 409Q251 409 221 374T191 258ZM254 730H357L461 585H372L304 670L234 585H144L254 730Z"  />
<glyph unicode="&#x11E;" horiz-adv-x="778" d="M554 501Q553 515 551 534T534 574Q523 592 508 603T475 620T442 628T413 630Q347 630 306 603T242 534T210 445T202 355Q202 337 204 312T212 261T230 209T262 161Q289 131 328 115T432 99Q460 99 479 100T512 104T535 108T550 113V265H410V385H705V24Q688 18 665 11T611 -2T537 -12T441 -16Q379 -16 332 -9T247 11T183 41T134 80Q104 110 85 145T56 216T42 286T38 350Q38 446 66 519T145 642T265 717T417 743Q487 743 553 722T663 652Q681 631 691 611T706 571T713 534T715 501H554ZM310 918Q314 893 324 878T346 853T373 841T399 838Q426 838 443 846T469 867T484 894T492 918H553Q551 888 541 862T511 816T463 785T398 773Q360 773 328 787T276 828Q257 852 254 876T249 918H310Z"  />
<glyph unicode="&#x11F;" horiz-adv-x="611" d="M544 503Q541 473 539 445T537 378V5Q537 -65 512 -105T448 -167T365 -193T285 -199Q258 -199 221 -195T150 -175T91 -127T63 -37H205Q206 -43 208 -54T220 -77T246 -98T293 -107Q326 -107 351 -91T385 -41Q387 -32 388 -23T390 -1T391 31T392 79Q374 56 356 42T320 21T286 12T256 10Q202 10 162 31T95 88T56 167T43 258Q43 306 56 351T97 431T164 487T259 508Q293 508 317 500T358 481T384 457T400 436L405 503H544ZM191 258Q191 249 192 225T203 175T233 131T290 111Q329 111 350 130T381 175T392 223T394 255Q394 276 391 303T378 353T347 393T293 409Q251 409 221 374T191 258ZM221 730Q225 705 235 690T257 665T284 653T310 650Q337 650 354 658T380 679T395 706T403 730H464Q462 700 452 674T422 628T374 597T309 585Q271 585 239 599T187 640Q168 664 165 688T160 730H221Z"  />
<glyph unicode="&#x120;" horiz-adv-x="778" d="M554 501Q553 515 551 534T534 574Q523 592 508 603T475 620T442 628T413 630Q347 630 306 603T242 534T210 445T202 355Q202 337 204 312T212 261T230 209T262 161Q289 131 328 115T432 99Q460 99 479 100T512 104T535 108T550 113V265H410V385H705V24Q688 18 665 11T611 -2T537 -12T441 -16Q379 -16 332 -9T247 11T183 41T134 80Q104 110 85 145T56 216T42 286T38 350Q38 446 66 519T145 642T265 717T417 743Q487 743 553 722T663 652Q681 631 691 611T706 571T713 534T715 501H554ZM362 905H464V787H362V905Z"  />
<glyph unicode="&#x121;" horiz-adv-x="611" d="M544 503Q541 473 539 445T537 378V5Q537 -65 512 -105T448 -167T365 -193T285 -199Q258 -199 221 -195T150 -175T91 -127T63 -37H205Q206 -43 208 -54T220 -77T246 -98T293 -107Q326 -107 351 -91T385 -41Q387 -32 388 -23T390 -1T391 31T392 79Q374 56 356 42T320 21T286 12T256 10Q202 10 162 31T95 88T56 167T43 258Q43 306 56 351T97 431T164 487T259 508Q293 508 317 500T358 481T384 457T400 436L405 503H544ZM191 258Q191 249 192 225T203 175T233 131T290 111Q329 111 350 130T381 175T392 223T394 255Q394 276 391 303T378 353T347 393T293 409Q251 409 221 374T191 258ZM252 717H354V599H252V717Z"  />
<glyph unicode="&#x122;" horiz-adv-x="778" d="M554 501Q553 515 551 534T534 574Q523 592 508 603T475 620T442 628T413 630Q347 630 306 603T242 534T210 445T202 355Q202 337 204 312T212 261T230 209T262 161Q289 131 328 115T432 99Q460 99 479 100T512 104T535 108T550 113V265H410V385H705V24Q688 18 665 11T611 -2T537 -12T441 -16Q379 -16 332 -9T247 11T183 41T134 80Q104 110 85 145T56 216T42 286T38 350Q38 446 66 519T145 642T265 717T417 743Q487 743 553 722T663 652Q681 631 691 611T706 571T713 534T715 501H554ZM483 -66L404 -225H337L377 -66H483Z"  />
<glyph unicode="&#x123;" horiz-adv-x="611" d="M544 503Q541 473 539 445T537 378V5Q537 -65 512 -105T448 -167T365 -193T285 -199Q258 -199 221 -195T150 -175T91 -127T63 -37H205Q206 -43 208 -54T220 -77T246 -98T293 -107Q326 -107 351 -91T385 -41Q387 -32 388 -23T390 -1T391 31T392 79Q374 56 356 42T320 21T286 12T256 10Q202 10 162 31T95 88T56 167T43 258Q43 306 56 351T97 431T164 487T259 508Q293 508 317 500T358 481T384 457T400 436L405 503H544ZM191 258Q191 249 192 225T203 175T233 131T290 111Q329 111 350 130T381 175T392 223T394 255Q394 276 391 303T378 353T347 393T293 409Q251 409 221 374T191 258ZM243 585L322 744H389L349 585H243Z"  />
<glyph unicode="&#x124;" horiz-adv-x="722" d="M67 723H222V434H495V723H652V0H497V317H222V0H67V723ZM314 918H417L521 773H432L364 858L294 773H204L314 918Z"  />
<glyph unicode="&#x125;" horiz-adv-x="611" d="M69 722H216V436Q222 445 233 458T261 483T302 503T362 512Q390 512 413 506T454 490T486 468T509 444Q523 425 532 391T542 307V0H395V302Q395 313 394 331T385 368T360 399T312 412Q296 412 280 407T249 390T226 359T217 309L218 0H69V722ZM127 906H230L334 761H245L177 846L107 761H17L127 906Z"  />
<glyph unicode="&#x126;" horiz-adv-x="722" d="M67 722H222V607H495V722H652V0H497V317H222V0H67V722ZM495 434V539H222V434H495Z"  />
<glyph unicode="&#x127;" horiz-adv-x="611" d="M69 568H14V621H69V722H216V621H359V568H216V436Q222 445 232 458T260 483T302 503T362 512Q390 512 413 506T454 490T486 468T509 444Q523 425 532 392T542 307V0H395V302Q395 313 394 331T385 368T360 399T312 412Q296 412 280 407T249 390T226 359T217 309L218 0H69V568Z"  />
<glyph unicode="&#x128;" horiz-adv-x="289" d="M60 725H215V0H60V725ZM-41 781Q-33 838 -1 871T77 904Q93 904 109 899T127 893L184 871Q189 869 197 867T218 865Q240 865 250 878T265 911H316Q313 884 305 861T276 818Q265 807 248 798T204 789Q187 789 174 793T152 800L109 816Q100 819 87 822T64 826Q51 826 36 818T11 781H-41Z"  />
<glyph unicode="&#x129;" horiz-adv-x="278" d="M65 506H213V0H65V506ZM-38 593Q-30 649 2 682T80 716Q96 716 112 711T130 705L187 683Q192 681 200 679T221 677Q243 677 253 690T268 723H319Q316 696 308 673T279 630Q268 619 251 610T207 601Q190 601 177 605T155 612L112 628Q103 631 90 634T67 638Q54 638 39 630T14 593H-38Z"  />
<glyph unicode="&#x12A;" horiz-adv-x="289" d="M60 725H215V0H60V725ZM-28 812V880H314V812H-28Z"  />
<glyph unicode="&#x12B;" horiz-adv-x="278" d="M65 506H213V0H65V506ZM10 624V692H352V624H10Z"  />
<glyph unicode="&#x12E;" horiz-adv-x="289" d="M67 722H222V0H185Q154 -21 133 -42T112 -97Q112 -120 120 -132T139 -151T160 -158T173 -159Q188 -159 197 -156T214 -147V-191Q200 -199 178 -208T121 -217Q73 -217 49 -196T25 -142Q25 -97 58 -60T142 0H67V722Z"  />
<glyph unicode="&#x12F;" horiz-adv-x="278" d="M65 506H213V0H167Q136 -21 115 -42T94 -97Q94 -120 102 -132T121 -151T142 -158T155 -159Q170 -159 179 -156T196 -147V-191Q182 -199 160 -208T103 -217Q55 -217 31 -196T7 -142Q7 -97 40 -60T124 0H65V506ZM60 722H218V593H60V722Z"  />
<glyph unicode="&#x130;" horiz-adv-x="289" d="M60 725H215V0H60V725ZM95 905H197V787H95V905Z"  />
<glyph unicode="&#x131;" horiz-adv-x="278" d="M65 506H213V0H65V506Z"  />
<glyph unicode="&#x132;" horiz-adv-x="822" d="M54 725H209V0H54V725ZM427 234Q429 175 446 141T512 106Q534 106 548 113T572 129T585 149T591 167Q596 190 596 220T597 280V723H754V279Q754 237 750 200T733 131T698 72T642 24Q621 11 588 2T502 -7Q443 -7 396 10T313 81Q300 101 293 122T281 163T276 202T275 234H427Z"  />
<glyph unicode="&#x133;" horiz-adv-x="549" d="M60 722H218V593H60V722ZM65 506H213V0H65V506ZM269 -94Q294 -95 307 -86T327 -62T335 -33T336 -8V507H484V-45Q484 -81 476 -109T449 -157T398 -187T319 -198Q313 -198 300 -198T269 -194V-94ZM331 722H489V593H331V722Z"  />
<glyph unicode="&#x134;" horiz-adv-x="548" d="M161 234Q163 175 180 141T246 106Q268 106 282 113T306 129T319 149T325 167Q330 190 330 220T331 280V723H488V279Q488 237 484 200T467 131T432 72T376 24Q355 11 322 2T236 -7Q177 -7 130 10T47 81Q34 101 27 122T15 163T10 202T9 234H161ZM353 918H456L560 773H471L403 858L333 773H243L353 918Z"  />
<glyph unicode="&#x135;" horiz-adv-x="278" d="M-2 -94Q23 -95 36 -86T56 -62T64 -33T65 -8V507H213V-45Q213 -81 205 -109T178 -157T127 -187T48 -198Q42 -198 29 -198T-2 -194V-94ZM89 730H192L296 585H207L139 670L69 585H-21L89 730Z"  />
<glyph unicode="&#x136;" horiz-adv-x="667" d="M67 721H222V410L464 723H645L380 399L668 0H475L222 368V0H67V721ZM388 -66L309 -225H242L282 -66H388Z"  />
<glyph unicode="&#x137;" horiz-adv-x="556" d="M67 723H214V297L367 508H534L361 288L545 0H370L214 275V0H67V723ZM336 -66L257 -225H190L230 -66H336Z"  />
<glyph unicode="&#x139;" horiz-adv-x="556" d="M69 722H227V123H537V0H69V722ZM180 773H100L183 918H317L180 773Z"  />
<glyph unicode="&#x13A;" horiz-adv-x="278" d="M65 723H213V0H65V723ZM147 758H67L150 903H284L147 758Z"  />
<glyph unicode="&#x13B;" horiz-adv-x="556" d="M69 722H227V123H537V0H69V722ZM354 -66L275 -225H208L248 -66H354Z"  />
<glyph unicode="&#x13C;" horiz-adv-x="278" d="M65 723H213V0H65V723ZM197 -66L118 -225H51L91 -66H197Z"  />
<glyph unicode="&#x13D;" horiz-adv-x="556" d="M69 722H227V123H537V0H69V722ZM514 722L435 563H368L408 722H514Z"  />
<glyph unicode="&#x13E;" horiz-adv-x="278" d="M65 723H213V0H65V723ZM392 722L313 563H246L286 722H392Z"  />
<glyph unicode="&#x13F;" horiz-adv-x="556" d="M69 722H227V123H537V0H69V722ZM378 493H480V375H378V493Z"  />
<glyph unicode="&#x140;" horiz-adv-x="389" d="M65 723H213V0H65V723ZM271 451H373V333H271V451Z"  />
<glyph unicode="&#x141;" horiz-adv-x="556" d="M69 289L3 251V352L70 392L69 722H227V481L402 583V479L227 378V123H537V0H69V289Z"  />
<glyph unicode="&#x142;" horiz-adv-x="278" d="M65 293L12 261V364L65 397V723H213V487L266 520V415L213 383V0H65V293Z"  />
<glyph unicode="&#x143;" horiz-adv-x="773" d="M72 723H296L567 154V723H711V0H498L218 600V0H72V723ZM410 773H330L413 918H547L410 773Z"  />
<glyph unicode="&#x144;" horiz-adv-x="611" d="M67 415Q67 416 67 425T67 448T66 478T64 507H206L210 431Q215 440 226 454T256 483T304 508T374 519Q411 519 438 509T483 485T512 454T528 424Q532 412 535 401T539 373T541 332T542 273V0H391V314Q391 330 390 343T383 369Q375 386 358 399T311 412Q287 412 267 402T234 373Q227 363 222 344T216 296V0H67V415ZM340 585H260L343 730H477L340 585Z"  />
<glyph unicode="&#x145;" horiz-adv-x="773" d="M72 723H296L567 154V723H711V0H498L218 600V0H72V723ZM436 -66L357 -225H290L330 -66H436Z"  />
<glyph unicode="&#x146;" horiz-adv-x="611" d="M67 415Q67 416 67 425T67 448T66 478T64 507H206L210 431Q215 440 226 454T256 483T304 508T374 519Q411 519 438 509T483 485T512 454T528 424Q532 412 535 401T539 373T541 332T542 273V0H391V314Q391 330 390 343T383 369Q375 386 358 399T311 412Q287 412 267 402T234 373Q227 363 222 344T216 296V0H67V415ZM360 -66L281 -225H214L254 -66H360Z"  />
<glyph unicode="&#x147;" horiz-adv-x="773" d="M72 723H296L567 154V723H711V0H498L218 600V0H72V723ZM552 918L446 773H329L225 918H319L389 827L459 918H552Z"  />
<glyph unicode="&#x148;" horiz-adv-x="611" d="M67 415Q67 416 67 425T67 448T66 478T64 507H206L210 431Q215 440 226 454T256 483T304 508T374 519Q411 519 438 509T483 485T512 454T528 424Q532 412 535 401T539 373T541 332T542 273V0H391V314Q391 330 390 343T383 369Q375 386 358 399T311 412Q287 412 267 402T234 373Q227 363 222 344T216 296V0H67V415ZM471 730L365 585H248L144 730H238L308 639L378 730H471Z"  />
<glyph unicode="&#x149;" horiz-adv-x="611" d="M67 415Q67 416 67 425T67 448T66 478T64 507H206L210 431Q215 440 226 454T256 483T304 508T374 519Q411 519 438 509T483 485T512 454T528 424Q532 412 535 401T539 373T541 332T542 273V0H391V314Q391 330 390 343T383 369Q375 386 358 399T311 412Q287 412 267 402T234 373Q227 363 222 344T216 296V0H67V415ZM156 722L77 563H10L50 722H156Z"  />
<glyph unicode="&#x14C;" horiz-adv-x="778" d="M42 351Q42 423 59 492T118 616T225 704T389 738Q418 738 451 734T518 719T584 689T643 640Q672 607 690 571T718 498T731 429T735 368Q735 329 729 289T712 212T683 143T644 85Q614 51 579 31T508 0T441 -14T387 -18Q315 -18 248 5T131 81Q101 112 84 149T57 222T45 292T42 351ZM204 356Q204 304 215 250T258 154Q275 131 305 114T389 96Q481 96 524 163Q533 176 542 194T557 237T568 294T573 370Q573 396 570 431T555 499Q532 566 489 596T390 627Q346 627 313 611T257 566Q226 528 215 473T204 356ZM218 812V880H560V812H218Z"  />
<glyph unicode="&#x14D;" horiz-adv-x="611" d="M42 248Q42 294 55 341T98 428T178 492T303 517Q372 517 421 496T503 438T550 353T565 252Q565 199 550 150T502 64T419 4T300 -18Q246 -18 199 -2T117 48T62 132T42 248ZM194 247Q194 162 222 124T305 85Q329 85 349 93T384 121T406 174T414 258Q414 283 411 311T396 363T362 402T303 418Q262 418 240 398T208 350T196 293T194 247ZM134 624V692H476V624H134Z"  />
<glyph unicode="&#x14E;" horiz-adv-x="778" d="M42 351Q42 423 59 492T118 616T225 704T389 738Q418 738 451 734T518 719T584 689T643 640Q672 607 690 571T718 498T731 429T735 368Q735 329 729 289T712 212T683 143T644 85Q614 51 579 31T508 0T441 -14T387 -18Q315 -18 248 5T131 81Q101 112 84 149T57 222T45 292T42 351ZM204 356Q204 304 215 250T258 154Q275 131 305 114T389 96Q481 96 524 163Q533 176 542 194T557 237T568 294T573 370Q573 396 570 431T555 499Q532 566 489 596T390 627Q346 627 313 611T257 566Q226 528 215 473T204 356ZM296 918Q300 893 310 878T332 853T359 841T385 838Q412 838 429 846T455 867T470 894T478 918H539Q537 888 527 862T497 816T449 785T384 773Q346 773 314 787T262 828Q243 852 240 876T235 918H296Z"  />
<glyph unicode="&#x14F;" horiz-adv-x="611" d="M42 248Q42 294 55 341T98 428T178 492T303 517Q372 517 421 496T503 438T550 353T565 252Q565 199 550 150T502 64T419 4T300 -18Q246 -18 199 -2T117 48T62 132T42 248ZM194 247Q194 162 222 124T305 85Q329 85 349 93T384 121T406 174T414 258Q414 283 411 311T396 363T362 402T303 418Q262 418 240 398T208 350T196 293T194 247ZM214 730Q218 705 228 690T250 665T277 653T303 650Q330 650 347 658T373 679T388 706T396 730H457Q455 700 445 674T415 628T367 597T302 585Q264 585 232 599T180 640Q161 664 158 688T153 730H214Z"  />
<glyph unicode="&#x150;" horiz-adv-x="778" d="M42 351Q42 423 59 492T118 616T225 704T389 738Q418 738 451 734T518 719T584 689T643 640Q672 607 690 571T718 498T731 429T735 368Q735 329 729 289T712 212T683 143T644 85Q614 51 579 31T508 0T441 -14T387 -18Q315 -18 248 5T131 81Q101 112 84 149T57 222T45 292T42 351ZM204 356Q204 304 215 250T258 154Q275 131 305 114T389 96Q481 96 524 163Q533 176 542 194T557 237T568 294T573 370Q573 396 570 431T555 499Q532 566 489 596T390 627Q346 627 313 611T257 566Q226 528 215 473T204 356ZM302 773H222L306 918H440L302 773ZM487 773H407L491 918H625L487 773Z"  />
<glyph unicode="&#x151;" horiz-adv-x="611" d="M42 248Q42 294 55 341T98 428T178 492T303 517Q372 517 421 496T503 438T550 353T565 252Q565 199 550 150T502 64T419 4T300 -18Q246 -18 199 -2T117 48T62 132T42 248ZM194 247Q194 162 222 124T305 85Q329 85 349 93T384 121T406 174T414 258Q414 283 411 311T396 363T362 402T303 418Q262 418 240 398T208 350T196 293T194 247ZM231 585H151L235 730H369L231 585ZM416 585H336L420 730H554L416 585Z"  />
<glyph unicode="&#x152;" horiz-adv-x="1000" d="M951 606H656V426H942V310H655V120H963V0H472Q422 0 375 1T283 11T198 38T124 92Q93 122 75 159T48 232T35 300T32 353Q32 414 45 470T86 573T153 653T247 701Q276 709 299 713T347 719T401 721T472 722H951V606ZM500 614Q458 614 428 613T375 610T334 602T298 588Q269 574 249 550T216 495T198 426T192 349Q192 288 205 247T240 178T292 137T356 117T427 111T500 111V614Z"  />
<glyph unicode="&#x153;" horiz-adv-x="944" d="M899 156Q893 114 877 83T829 27Q793 -1 752 -9T681 -17Q638 -17 608 -9T557 13T520 42T492 75Q447 20 400 1T294 -18Q222 -18 174 6T96 68T54 154T42 250Q42 331 68 382T133 464T216 505T298 517Q344 517 377 506T434 480T470 450T492 424Q498 434 510 450T544 481T598 508T676 519Q695 519 720 516T773 501T826 470T872 417Q885 394 892 367T903 313T906 262T907 219H572Q572 196 576 171T591 125T622 90T674 76Q707 76 729 95T760 156H899ZM760 311Q760 325 759 344T749 382T723 413T673 426Q632 426 605 398T572 311H760ZM305 80Q346 80 369 98T404 143T419 201T422 260Q422 276 420 303T408 356T373 401T306 421Q272 421 250 407T215 369T197 314T192 250Q192 162 220 121T305 80Z"  />
<glyph unicode="&#x154;" horiz-adv-x="667" d="M60 723H337Q367 723 397 723T455 718T508 703T556 674Q590 645 604 608T619 535Q619 484 601 452T557 400T507 371T468 358Q509 354 532 341T569 307T587 256T598 192Q606 128 611 98T620 52Q626 28 631 19T642 0H471Q468 15 463 52T453 130T442 205T432 251Q427 266 418 274T398 287T376 291T354 292H218V0H60V723ZM213 407H338Q352 407 375 409T417 427Q421 430 428 436T441 453T452 477T457 511Q457 548 444 566T419 592Q401 605 378 607T317 609H213V407ZM330 773H250L333 918H467L330 773Z"  />
<glyph unicode="&#x155;" horiz-adv-x="389" d="M65 381Q65 390 65 406T63 442T61 478T58 507H197L200 410Q207 426 218 444T248 477T297 501T372 508V375Q316 380 284 370T236 341T217 298T213 249V0H65V381ZM169 585H89L172 730H306L169 585Z"  />
<glyph unicode="&#x156;" horiz-adv-x="667" d="M60 723H337Q367 723 397 723T455 718T508 703T556 674Q590 645 604 608T619 535Q619 484 601 452T557 400T507 371T468 358Q509 354 532 341T569 307T587 256T598 192Q606 128 611 98T620 52Q626 28 631 19T642 0H471Q468 15 463 52T453 130T442 205T432 251Q427 266 418 274T398 287T376 291T354 292H218V0H60V723ZM213 407H338Q352 407 375 409T417 427Q421 430 428 436T441 453T452 477T457 511Q457 548 444 566T419 592Q401 605 378 607T317 609H213V407ZM399 -66L320 -225H253L293 -66H399Z"  />
<glyph unicode="&#x157;" horiz-adv-x="389" d="M65 381Q65 390 65 406T63 442T61 478T58 507H197L200 410Q207 426 218 444T248 477T297 501T372 508V375Q316 380 284 370T236 341T217 298T213 249V0H65V381ZM198 -66L119 -225H52L92 -66H198Z"  />
<glyph unicode="&#x158;" horiz-adv-x="667" d="M60 723H337Q367 723 397 723T455 718T508 703T556 674Q590 645 604 608T619 535Q619 484 601 452T557 400T507 371T468 358Q509 354 532 341T569 307T587 256T598 192Q606 128 611 98T620 52Q626 28 631 19T642 0H471Q468 15 463 52T453 130T442 205T432 251Q427 266 418 274T398 287T376 291T354 292H218V0H60V723ZM213 407H338Q352 407 375 409T417 427Q421 430 428 436T441 453T452 477T457 511Q457 548 444 566T419 592Q401 605 378 607T317 609H213V407ZM496 918L390 773H273L169 918H263L333 827L403 918H496Z"  />
<glyph unicode="&#x159;" horiz-adv-x="389" d="M65 381Q65 390 65 406T63 442T61 478T58 507H197L200 410Q207 426 218 444T248 477T297 501T372 508V375Q316 380 284 370T236 341T217 298T213 249V0H65V381ZM354 730L248 585H131L27 730H121L191 639L261 730H354Z"  />
<glyph unicode="&#x15A;" horiz-adv-x="667" d="M193 231Q193 218 195 195T209 150T247 111T324 94Q387 94 424 121T461 195Q461 219 453 234T427 259T384 276T324 292Q259 308 210 326T127 370T76 430T58 511Q58 556 74 596T125 667T214 716T344 735Q372 735 402 732T461 718T516 692T562 650Q577 630 585 610T598 572T602 540T603 516H454Q453 525 450 543T435 580T400 612T337 626Q283 626 251 600T218 528Q218 503 228 487T257 460T306 441T375 423Q422 412 466 399T546 363T602 306T623 218Q623 169 603 127T544 52T448 2T315 -17Q246 -17 199 -4T120 31T72 80T47 135T37 188T35 231H193ZM360 773H280L363 918H497L360 773Z"  />
<glyph unicode="&#x15B;" horiz-adv-x="500" d="M168 146Q169 134 173 122T187 100T213 84T252 77Q292 77 311 95T330 137Q330 154 317 168T260 194L168 219Q153 223 131 231T89 254T54 295T40 359Q40 396 56 425T101 474T171 506T261 517Q300 517 334 508T394 481T435 434T453 368H318Q316 389 308 401T289 419T267 426T246 428Q216 428 196 415T176 378Q176 352 194 343T245 325L336 300Q405 281 438 246T471 159Q471 126 457 95T414 40T342 0T239 -15Q190 -15 146 -2T66 47Q41 73 36 100T29 146H168ZM282 585H202L285 730H419L282 585Z"  />
<glyph unicode="&#x15C;" horiz-adv-x="667" d="M193 231Q193 218 195 195T209 150T247 111T324 94Q387 94 424 121T461 195Q461 219 453 234T427 259T384 276T324 292Q259 308 210 326T127 370T76 430T58 511Q58 556 74 596T125 667T214 716T344 735Q372 735 402 732T461 718T516 692T562 650Q577 630 585 610T598 572T602 540T603 516H454Q453 525 450 543T435 580T400 612T337 626Q283 626 251 600T218 528Q218 503 228 487T257 460T306 441T375 423Q422 412 466 399T546 363T602 306T623 218Q623 169 603 127T544 52T448 2T315 -17Q246 -17 199 -4T120 31T72 80T47 135T37 188T35 231H193ZM278 918H381L485 773H396L328 858L258 773H168L278 918Z"  />
<glyph unicode="&#x15D;" horiz-adv-x="500" d="M168 146Q169 134 173 122T187 100T213 84T252 77Q292 77 311 95T330 137Q330 154 317 168T260 194L168 219Q153 223 131 231T89 254T54 295T40 359Q40 396 56 425T101 474T171 506T261 517Q300 517 334 508T394 481T435 434T453 368H318Q316 389 308 401T289 419T267 426T246 428Q216 428 196 415T176 378Q176 352 194 343T245 325L336 300Q405 281 438 246T471 159Q471 126 457 95T414 40T342 0T239 -15Q190 -15 146 -2T66 47Q41 73 36 100T29 146H168ZM209 730H312L416 585H327L259 670L189 585H99L209 730Z"  />
<glyph unicode="&#x15E;" horiz-adv-x="667" d="M236 -153Q253 -161 271 -166T306 -171Q332 -171 346 -161T361 -133Q361 -122 352 -109T317 -96Q303 -96 294 -99T276 -105L256 -84L304 -16Q238 -15 192 -1T117 34T71 83T46 137T37 189T35 231H193Q193 218 195 195T209 150T247 111T324 94Q387 94 424 121T461 195Q461 219 453 234T427 259T384 276T324 292Q259 308 210 326T127 370T76 430T58 511Q58 556 74 596T125 667T214 716T344 735Q372 735 402 731T461 718T516 692T562 650Q577 630 585 610T597 572T602 540T603 516H454Q453 525 450 543T435 580T400 612T337 626Q283 626 251 600T218 528Q218 502 228 487T257 460T306 441T375 423Q422 412 466 399T546 363T602 306T623 218Q623 172 605 132T553 60T467 8T350 -16L319 -58Q327 -56 334 -55T354 -54Q379 -54 395 -61T420 -80T434 -103T438 -126Q438 -153 425 -171T393 -199T351 -213T312 -217Q277 -217 251 -209T215 -195L236 -153Z"  />
<glyph unicode="&#x15F;" horiz-adv-x="500" d="M161 -153Q178 -161 196 -166T231 -171Q257 -171 271 -161T286 -133Q286 -122 277 -109T242 -96Q228 -96 219 -99T201 -105L181 -84L230 -15Q182 -13 141 -1T66 47Q41 73 36 100T29 146H168Q169 134 173 122T188 100T213 84T252 77Q292 77 311 95T330 137Q330 154 317 168T260 194L168 219Q153 223 131 231T89 254T54 295T40 359Q40 396 56 425T101 474T171 506T261 517Q300 517 334 508T394 481T435 434T453 368H318Q316 389 308 401T289 419T267 426T246 428Q216 428 196 415T176 378Q176 352 194 343T245 325L336 300Q405 281 438 246T471 159Q471 129 459 100T423 48T363 8T277 -13L244 -58Q252 -56 259 -55T279 -54Q304 -54 320 -61T345 -80T359 -103T363 -126Q363 -153 350 -171T318 -199T276 -213T237 -217Q202 -217 176 -209T140 -195L161 -153Z"  />
<glyph unicode="&#x160;" horiz-adv-x="667" d="M193 231Q193 218 195 195T209 150T247 111T324 94Q387 94 424 121T461 195Q461 219 453 234T427 259T384 276T324 292Q259 308 210 326T127 370T76 430T58 511Q58 556 74 596T125 667T214 716T344 735Q372 735 402 732T461 718T516 692T562 650Q577 630 585 610T598 572T602 540T603 516H454Q453 525 450 543T435 580T400 612T337 626Q283 626 251 600T218 528Q218 503 228 487T257 460T306 441T375 423Q422 412 466 399T546 363T602 306T623 218Q623 169 603 127T544 52T448 2T315 -17Q246 -17 199 -4T120 31T72 80T47 135T37 188T35 231H193ZM499 918L393 773H276L172 918H266L336 827L406 918H499Z"  />
<glyph unicode="&#x161;" horiz-adv-x="500" d="M168 146Q169 134 173 122T187 100T213 84T252 77Q292 77 311 95T330 137Q330 154 317 168T260 194L168 219Q153 223 131 231T89 254T54 295T40 359Q40 396 56 425T101 474T171 506T261 517Q300 517 334 508T394 481T435 434T453 368H318Q316 389 308 401T289 419T267 426T246 428Q216 428 196 415T176 378Q176 352 194 343T245 325L336 300Q405 281 438 246T471 159Q471 126 457 95T414 40T342 0T239 -15Q190 -15 146 -2T66 47Q41 73 36 100T29 146H168ZM415 730L309 585H192L88 730H182L252 639L322 730H415Z"  />
<glyph unicode="&#x162;" horiz-adv-x="611" d="M229 603H14V723H600V603H385V0H229V603ZM379 -66L300 -225H233L273 -66H379Z"  />
<glyph unicode="&#x163;" horiz-adv-x="389" d="M362 7Q326 -3 296 -6T247 -9Q191 -9 161 6T117 43T101 88T98 127V404H1V502H98V601L245 655V502H365V404H245V176Q245 159 246 145T254 121T273 106T312 101Q329 101 338 101T362 104V7ZM261 -66L182 -225H115L155 -66H261Z"  />
<glyph unicode="&#x164;" horiz-adv-x="611" d="M229 603H14V723H600V603H385V0H229V603ZM471 918L365 773H248L144 918H238L308 827L378 918H471Z"  />
<glyph unicode="&#x165;" horiz-adv-x="389" d="M362 7Q326 -3 296 -6T247 -9Q191 -9 161 6T117 43T101 88T98 127V404H1V502H98V601L245 655V502H365V404H245V176Q245 159 246 145T254 121T273 106T312 101Q329 101 338 101T362 104V7ZM466 722L387 563H320L360 722H466Z"  />
<glyph unicode="&#x166;" horiz-adv-x="611" d="M385 389V0H229V389H113V453H229V603H14V723H600V603H385V453H497V389H385Z"  />
<glyph unicode="&#x167;" horiz-adv-x="389" d="M362 7Q326 -3 296 -6T247 -9Q191 -9 161 6T117 43T101 88T98 127V251H12V304H98V404H1V502H98V601L245 655V502H365V404H245V304H357V251H245V176Q245 159 246 145T253 121T273 106T312 101Q329 101 338 101T362 104V7Z"  />
<glyph unicode="&#x168;" horiz-adv-x="746" d="M227 721V281Q227 251 230 220T249 162T295 120T384 103Q393 103 410 104T448 111T489 130T524 166Q530 174 534 184T541 208T545 242T547 289V721H698V270Q698 189 669 135T594 47T492 0T381 -14Q354 -14 318 -10T244 7T170 45T109 111Q83 153 78 195T72 289V721H227ZM219 781Q227 838 259 871T337 904Q353 904 369 899T387 893L444 871Q449 869 457 867T478 865Q500 865 510 878T525 911H576Q573 884 565 861T536 818Q525 807 508 798T464 789Q447 789 434 793T412 800L369 816Q360 819 347 822T324 826Q311 826 296 818T271 781H219Z"  />
<glyph unicode="&#x169;" horiz-adv-x="611" d="M210 505V204Q210 187 211 168T219 132T243 104T289 93Q325 93 344 105T372 139T382 189T384 250V505H536V172Q537 131 537 107T538 69T539 49T539 37Q540 26 540 19T543 0H399L394 67Q388 59 378 46T350 19T307 -3T245 -13Q194 -13 154 7T93 55Q81 70 74 90T64 129T61 165T60 191V505H210ZM135 593Q143 649 175 682T253 716Q269 716 285 711T303 705L360 683Q365 681 373 679T394 677Q416 677 426 690T441 723H492Q489 696 481 673T452 630Q441 619 424 610T380 601Q363 601 350 605T328 612L285 628Q276 631 263 634T240 638Q227 638 212 630T187 593H135Z"  />
<glyph unicode="&#x16A;" horiz-adv-x="746" d="M227 721V281Q227 251 230 220T249 162T295 120T384 103Q393 103 410 104T448 111T489 130T524 166Q530 174 534 184T541 208T545 242T547 289V721H698V270Q698 189 669 135T594 47T492 0T381 -14Q354 -14 318 -10T244 7T170 45T109 111Q83 153 78 195T72 289V721H227ZM211 812V880H553V812H211Z"  />
<glyph unicode="&#x16B;" horiz-adv-x="611" d="M210 505V204Q210 187 211 168T219 132T243 104T289 93Q325 93 344 105T372 139T382 189T384 250V505H536V172Q537 131 537 107T538 69T539 49T539 37Q540 26 540 19T543 0H399L394 67Q388 59 378 46T350 19T307 -3T245 -13Q194 -13 154 7T93 55Q81 70 74 90T64 129T61 165T60 191V505H210ZM129 624V692H471V624H129Z"  />
<glyph unicode="&#x16C;" horiz-adv-x="746" d="M227 721V281Q227 251 230 220T249 162T295 120T384 103Q393 103 410 104T448 111T489 130T524 166Q530 174 534 184T541 208T545 242T547 289V721H698V270Q698 189 669 135T594 47T492 0T381 -14Q354 -14 318 -10T244 7T170 45T109 111Q83 153 78 195T72 289V721H227ZM293 918Q297 893 307 878T329 853T356 841T382 838Q409 838 426 846T452 867T467 894T475 918H536Q534 888 524 862T494 816T446 785T381 773Q343 773 311 787T259 828Q240 852 237 876T232 918H293Z"  />
<glyph unicode="&#x16D;" horiz-adv-x="611" d="M210 505V204Q210 187 211 168T219 132T243 104T289 93Q325 93 344 105T372 139T382 189T384 250V505H536V172Q537 131 537 107T538 69T539 49T539 37Q540 26 540 19T543 0H399L394 67Q388 59 378 46T350 19T307 -3T245 -13Q194 -13 154 7T93 55Q81 70 74 90T64 129T61 165T60 191V505H210ZM212 730Q216 705 226 690T248 665T275 653T301 650Q328 650 345 658T371 679T386 706T394 730H455Q453 700 443 674T413 628T365 597T300 585Q262 585 230 599T178 640Q159 664 156 688T151 730H212Z"  />
<glyph unicode="&#x16E;" horiz-adv-x="746" d="M227 721V281Q227 251 230 220T249 162T295 120T384 103Q393 103 410 104T448 111T489 130T524 166Q530 174 534 184T541 208T545 242T547 289V721H698V270Q698 189 669 135T594 47T492 0T381 -14Q354 -14 318 -10T244 7T170 45T109 111Q83 153 78 195T72 289V721H227ZM381 948Q403 948 421 940T453 918T474 886T482 846Q482 825 474 807T453 774T421 752T381 744Q360 744 342 752T310 773T288 806T280 846Q280 867 288 885T309 918T341 940T381 948ZM381 900Q359 900 344 885T328 846Q328 824 343 809T381 793Q404 793 419 808T435 846Q435 868 420 884T381 900Z"  />
<glyph unicode="&#x16F;" horiz-adv-x="611" d="M210 505V204Q210 187 211 168T219 132T243 104T289 93Q325 93 344 105T372 139T382 189T384 250V505H536V172Q537 131 537 107T538 69T539 49T539 37Q540 26 540 19T543 0H399L394 67Q388 59 378 46T350 19T307 -3T245 -13Q194 -13 154 7T93 55Q81 70 74 90T64 129T61 165T60 191V505H210ZM298 760Q320 760 338 752T370 730T391 698T399 658Q399 637 391 619T370 586T338 564T298 556Q277 556 259 564T227 585T205 618T197 658Q197 679 205 697T226 730T258 752T298 760ZM298 712Q276 712 261 697T245 658Q245 636 260 621T298 605Q321 605 336 620T352 658Q352 680 337 696T298 712Z"  />
<glyph unicode="&#x170;" horiz-adv-x="746" d="M227 721V281Q227 251 230 220T249 162T295 120T384 103Q393 103 410 104T448 111T489 130T524 166Q530 174 534 184T541 208T545 242T547 289V721H698V270Q698 189 669 135T594 47T492 0T381 -14Q354 -14 318 -10T244 7T170 45T109 111Q83 153 78 195T72 289V721H227ZM319 773H239L323 918H457L319 773ZM504 773H424L508 918H642L504 773Z"  />
<glyph unicode="&#x171;" horiz-adv-x="611" d="M210 505V204Q210 187 211 168T219 132T243 104T289 93Q325 93 344 105T372 139T382 189T384 250V505H536V172Q537 131 537 107T538 69T539 49T539 37Q540 26 540 19T543 0H399L394 67Q388 59 378 46T350 19T307 -3T245 -13Q194 -13 154 7T93 55Q81 70 74 90T64 129T61 165T60 191V505H210ZM232 585H152L236 730H370L232 585ZM417 585H337L421 730H555L417 585Z"  />
<glyph unicode="&#x172;" horiz-adv-x="746" d="M480 -191Q466 -199 444 -208T387 -217Q339 -217 315 -196T291 -142Q291 -104 316 -71T381 -14H369Q342 -14 306 -10T232 7T158 45T97 111Q71 153 66 195T60 289V721H215V281Q215 251 218 220T237 162T283 120T372 103Q381 103 398 104T436 111T477 130T512 166Q523 181 529 208T535 289V721H686V270Q686 202 665 153T610 71T531 18T439 -8Q413 -27 396 -47T378 -97Q378 -120 386 -132T405 -151T426 -158T439 -159Q454 -159 463 -156T480 -147V-191Z"  />
<glyph unicode="&#x173;" horiz-adv-x="611" d="M505 -191Q491 -199 469 -208T412 -217Q364 -217 340 -196T316 -142Q316 -97 349 -60T433 0H399L394 67Q388 59 378 46T350 19T307 -3T245 -13Q194 -13 154 7T93 55Q81 70 74 90T64 129T61 165T60 191V505H210V204Q210 187 211 168T219 132T243 104T289 93Q325 93 344 105T372 139T382 189T384 250V505H536V172Q537 131 537 107T538 69T539 49T539 37Q540 26 540 19T543 0H476Q445 -21 424 -42T403 -97Q403 -120 411 -132T430 -151T451 -158T464 -159Q479 -159 488 -156T505 -147V-191Z"  />
<glyph unicode="&#x174;" horiz-adv-x="1000" d="M175 720L287 179L428 720H603L730 179L847 720H995L811 -2H639L508 550L367 -2H191L15 720H175ZM467 918H570L674 773H585L517 858L447 773H357L467 918Z"  />
<glyph unicode="&#x175;" horiz-adv-x="889" d="M162 505L255 124L362 505H525L631 124L730 505H877L704 0H543L439 374L333 0H170L5 505H162ZM395 730H498L602 585H513L445 670L375 585H285L395 730Z"  />
<glyph unicode="&#x176;" horiz-adv-x="667" d="M197 720L346 391L498 720H657L413 263V0H260V265L16 720H197ZM303 918H406L510 773H421L353 858L283 773H193L303 918Z"  />
<glyph unicode="&#x177;" horiz-adv-x="556" d="M174 505L285 155L398 505H545L354 9L293 -192H144L208 -2L14 505H174ZM235 730H338L442 585H353L285 670L215 585H125L235 730Z"  />
<glyph unicode="&#x178;" horiz-adv-x="667" d="M197 720L346 391L498 720H657L413 263V0H260V265L16 720H197ZM367 896H469V778H367V896ZM195 896H297V778H195V896Z"  />
<glyph unicode="&#x179;" horiz-adv-x="611" d="M27 132L405 605L50 602V720H573V583L196 113L581 119V0H27V132ZM345 773H265L348 918H482L345 773Z"  />
<glyph unicode="&#x17A;" horiz-adv-x="500" d="M32 130L288 406H39V505H453V378L197 102H463V0H32V130ZM263 585H183L266 730H400L263 585Z"  />
<glyph unicode="&#x17B;" horiz-adv-x="611" d="M27 132L405 605L50 602V720H573V583L196 113L581 119V0H27V132ZM260 905H362V787H260V905Z"  />
<glyph unicode="&#x17C;" horiz-adv-x="500" d="M32 130L288 406H39V505H453V378L197 102H463V0H32V130ZM206 717H308V599H206V717Z"  />
<glyph unicode="&#x17D;" horiz-adv-x="611" d="M27 132L405 605L50 602V720H573V583L196 113L581 119V0H27V132ZM471 918L365 773H248L144 918H238L308 827L378 918H471Z"  />
<glyph unicode="&#x17E;" horiz-adv-x="500" d="M32 130L288 406H39V505H453V378L197 102H463V0H32V130ZM415 730L309 585H192L88 730H182L252 639L322 730H415Z"  />
<glyph unicode="&#x192;" horiz-adv-x="556" d="M51 -42Q56 -43 60 -43T70 -44Q100 -44 109 -30T121 0L190 350H125L144 451H210L221 508Q230 553 241 588T270 649T318 687T393 700Q416 700 435 698T475 693L453 583Q426 587 410 583T384 568T371 541T363 505L352 451H424L409 350H333L258 -25Q252 -54 243 -82T206 -128Q190 -139 163 -149T90 -160Q85 -160 69 -160T30 -155L51 -42Z"  />
<glyph unicode="&#x218;" horiz-adv-x="667" d="M193 231Q193 218 195 195T209 150T247 111T324 94Q387 94 424 121T461 195Q461 219 453 234T427 259T384 276T324 292Q259 308 210 326T127 370T76 430T58 511Q58 556 74 596T125 667T214 716T344 735Q372 735 402 732T461 718T516 692T562 650Q577 630 585 610T598 572T602 540T603 516H454Q453 525 450 543T435 580T400 612T337 626Q283 626 251 600T218 528Q218 503 228 487T257 460T306 441T375 423Q422 412 466 399T546 363T602 306T623 218Q623 169 603 127T544 52T448 2T315 -17Q246 -17 199 -4T120 31T72 80T47 135T37 188T35 231H193ZM387 -66L308 -225H241L281 -66H387Z"  />
<glyph unicode="&#x219;" horiz-adv-x="500" d="M168 146Q169 134 173 122T187 100T213 84T252 77Q292 77 311 95T330 137Q330 154 317 168T260 194L168 219Q153 223 131 231T89 254T54 295T40 359Q40 396 56 425T101 474T171 506T261 517Q300 517 334 508T394 481T435 434T453 368H318Q316 389 308 401T289 419T267 426T246 428Q216 428 196 415T176 378Q176 352 194 343T245 325L336 300Q405 281 438 246T471 159Q471 126 457 95T414 40T342 0T239 -15Q190 -15 146 -2T66 47Q41 73 36 100T29 146H168ZM317 -66L238 -225H171L211 -66H317Z"  />
<glyph unicode="&#x21A;" horiz-adv-x="611" d="M229 603H14V723H600V603H385V0H229V603ZM379 -66L300 -225H233L273 -66H379Z"  />
<glyph unicode="&#x21B;" horiz-adv-x="389" d="M362 7Q326 -3 296 -6T247 -9Q191 -9 161 6T117 43T101 88T98 127V404H1V502H98V601L245 655V502H365V404H245V176Q245 159 246 145T254 121T273 106T312 101Q329 101 338 101T362 104V7ZM261 -66L182 -225H115L155 -66H261Z"  />
<glyph unicode="&#x237;" horiz-adv-x="278" d="M-2 -94Q23 -95 36 -86T56 -62T64 -33T65 -8V507H213V-45Q213 -81 205 -109T178 -157T127 -187T48 -198Q42 -198 29 -198T-2 -194V-94Z"  />
<glyph unicode="&#x2C6;" horiz-adv-x="278" d="M88 730H191L295 585H206L138 670L68 585H-22L88 730Z"  />
<glyph unicode="&#x2C7;" horiz-adv-x="278" d="M304 730L198 585H81L-23 730H71L141 639L211 730H304Z"  />
<glyph unicode="&#x2C9;" horiz-adv-x="278" d="M-36 624V692H306V624H-36Z"  />
<glyph unicode="&#x2D8;" horiz-adv-x="278" d="M47 730Q51 705 61 690T83 665T110 653T136 650Q163 650 180 658T206 679T221 706T229 730H290Q288 700 278 674T248 628T200 597T135 585Q97 585 65 599T13 640Q-6 664 -9 688T-14 730H47Z"  />
<glyph unicode="&#x2D9;" horiz-adv-x="278" d="M88 717H190V599H88V717Z"  />
<glyph unicode="&#x2DA;" horiz-adv-x="278" d="M139 760Q161 760 179 752T211 730T232 698T240 658Q240 637 232 619T211 586T179 564T139 556Q118 556 100 564T68 585T46 618T38 658Q38 679 46 697T67 730T99 752T139 760ZM139 712Q117 712 102 697T86 658Q86 636 101 621T139 605Q162 605 177 620T193 658Q193 680 178 696T139 712Z"  />
<glyph unicode="&#x2DB;" horiz-adv-x="278" d="M232 -191Q218 -199 196 -208T139 -217Q91 -217 67 -196T43 -142Q43 -97 77 -60T162 1H205Q173 -21 152 -42T130 -97Q130 -120 138 -132T157 -151T178 -158T191 -159Q206 -159 215 -156T232 -147V-191Z"  />
<glyph unicode="&#x2DC;" horiz-adv-x="278" d="M-42 593Q-34 649 -2 682T76 716Q92 716 108 711T126 705L183 683Q188 681 196 679T217 677Q239 677 249 690T264 723H315Q312 696 304 673T275 630Q264 619 247 610T203 601Q186 601 173 605T151 612L108 628Q99 631 86 634T63 638Q50 638 35 630T10 593H-42Z"  />
<glyph unicode="&#x2DD;" horiz-adv-x="556" d="M198 585H118L202 730H336L198 585ZM383 585H303L387 730H521L383 585Z"  />
<glyph unicode="&#x394;" horiz-adv-x="698" d="M9 0L277 710H405L689 0H9ZM339 542L188 125H500L339 542Z"  />
<glyph unicode="&#x3A9;" horiz-adv-x="765" d="M427 0V204Q497 220 534 274Q553 300 562 332T571 401Q571 443 556 479T516 542T456 583T381 598Q340 598 305 583T244 542T204 480T189 400Q189 325 226 274T331 204V0H48V125H218V146Q134 175 91 243Q48 311 48 404Q48 474 74 532T145 633T250 698T379 721Q448 721 508 699T613 635T684 535T710 407Q710 361 700 320T669 244T616 184T540 146V125H710V0H427Z"  />
<glyph unicode="&#x3BC;" horiz-adv-x="611" d="M71 505H199V261Q199 226 201 196T214 145T242 111T294 98Q330 98 349 113T378 152T390 204T392 258V505H521V0H411V60Q405 51 396 39T374 17T341 -1T297 -9Q274 -9 257 -4T228 9T209 25T196 41V-212H70L71 505Z"  />
<glyph unicode="&#x3C0;" horiz-adv-x="593" d="M580 13Q559 3 534 -2T485 -7Q452 -7 430 3T395 30T377 72T371 124V403H198V0H71V403H11V505H577V403H498V141Q498 130 498 120T503 102T514 88T536 83Q559 83 580 93V13Z"  />
<glyph unicode="&#x2013;" horiz-adv-x="500" d="M0 310H500V213H0V310Z"  />
<glyph unicode="&#x2014;" horiz-adv-x="1000" d="M130 310H870V213H130V310Z"  />
<glyph unicode="&#x2018;" horiz-adv-x="278" d="M169 475H23L135 722H240L169 475Z"  />
<glyph unicode="&#x2019;" horiz-adv-x="278" d="M110 722H256L144 475H39L110 722Z"  />
<glyph unicode="&#x201A;" horiz-adv-x="278" d="M250 133L131 -113H28L102 133H250Z"  />
<glyph unicode="&#x201C;" horiz-adv-x="556" d="M209 475H64L176 722H280L209 475ZM405 475H259L371 722H476L405 475Z"  />
<glyph unicode="&#x201D;" horiz-adv-x="556" d="M138 722H284L171 475H67L138 722ZM333 722H479L367 475H263L333 722Z"  />
<glyph unicode="&#x201E;" horiz-adv-x="556" d="M68 -113L139 133H282L171 -113H68ZM267 -113L338 133H481L370 -113H267Z"  />
<glyph unicode="&#x2020;" horiz-adv-x="556" d="M53 465V565H214V722H336V565H493V465H336V0H214V465H53Z"  />
<glyph unicode="&#x2021;" horiz-adv-x="556" d="M495 572V475H336V250H495V153H336V0H214V153H56V250H214V475H53V572H214V722H336V572H495Z"  />
<glyph unicode="&#x2022;" horiz-adv-x="350" d="M175 542Q212 542 245 528T302 490T341 433T356 362Q356 324 342 292T303 234T245 195T175 181Q137 181 105 195T47 234T8 291T-6 362Q-6 400 8 433T47 490T105 528T175 542Z"  />
<glyph unicode="&#x2026;" horiz-adv-x="1000" d="M117 133H244V0H117V133ZM437 133H564V0H437V133ZM757 133H884V0H757V133Z"  />
<glyph unicode="&#x2030;" horiz-adv-x="1000" d="M509 335Q585 335 618 292T651 175Q651 152 648 121T632 61T590 12T511 -9Q470 -9 443 4T400 41T377 95T370 161Q370 197 376 229T399 284T441 321T509 335ZM511 68Q536 68 545 90T554 165Q554 205 547 232T513 259Q498 259 490 251T477 230T471 198T470 157Q470 116 477 92T511 68ZM845 335Q922 335 955 292T988 175Q988 152 985 121T969 61T927 12T848 -9Q807 -9 780 4T737 41T713 95T706 161Q706 197 712 229T735 284T777 321T845 335ZM848 68Q873 68 881 90T890 165Q890 185 889 202T884 232T871 252T849 259Q820 259 813 230T806 157Q806 116 813 92T848 68ZM147 719Q224 719 256 676T289 560Q289 537 287 506T271 445T229 396T150 375Q109 375 82 388T39 425T15 479T8 546Q8 582 14 614T37 669T79 705T147 719ZM150 452Q175 452 183 474T192 549Q192 569 191 586T186 616T173 636T151 644Q122 644 115 615T108 541Q108 501 115 477T150 452ZM76 -16L503 727H576L151 -16H76Z"  />
<glyph unicode="&#x2039;" horiz-adv-x="278" d="M17 252L126 442H258L163 252L258 56H126L17 252Z"  />
<glyph unicode="&#x203A;" horiz-adv-x="278" d="M142 442L251 245L142 56H10L105 245L10 442H142Z"  />
<glyph unicode="&#x2044;" horiz-adv-x="167" d="M250 725H332L-85 -28H-167L250 725Z"  />
<glyph unicode="&#x20AC;" horiz-adv-x="556" d="M73 321V346Q73 355 73 368T75 391H15L34 457H81Q88 511 110 556T169 634T253 685T360 704Q430 704 475 690T546 656L507 532Q483 560 450 574T369 588Q342 588 318 581T276 559T244 518T225 457H490L471 391H219Q218 382 217 369T216 346V321H455L437 255H220Q228 186 264 144T360 102Q408 102 439 113T502 150V27Q475 5 432 -5T346 -15Q284 -15 237 4T157 58T104 143T78 255H9L27 321H73Z"  />
<glyph unicode="&#x2113;" horiz-adv-x="500" d="M454 53Q414 19 373 3T284 -14Q206 -14 164 27T121 132V176L66 128H64L16 201L120 287V525Q120 567 133 603T170 665T227 706T299 721Q368 721 408 680T448 572Q448 494 401 421T257 265V154Q257 115 276 101T318 86Q357 86 406 123H408L454 53ZM337 563Q337 591 327 611T298 631Q281 631 269 610T257 551V381Q300 426 318 472T337 563Z"  />
<glyph unicode="&#x2122;" horiz-adv-x="1000" d="M445 723H567L640 459L719 723H837V362H763V672L669 362H607L514 672V362H445V723ZM211 663H84V723H413V663H287V362H211V663Z"  />
<glyph unicode="&#x2126;" horiz-adv-x="765" d="M427 0V204Q497 220 534 274Q553 300 562 332T571 401Q571 443 556 479T516 542T456 583T381 598Q340 598 305 583T244 542T204 480T189 400Q189 325 226 274T331 204V0H48V125H218V146Q134 175 91 243Q48 311 48 404Q48 474 74 532T145 633T250 698T379 721Q448 721 508 699T613 635T684 535T710 407Q710 361 700 320T669 244T616 184T540 146V125H710V0H427Z"  />
<glyph unicode="&#x212E;" horiz-adv-x="600" d="M448 295V440Q385 500 301 500Q217 500 157 440V295H448ZM157 259V78Q216 19 302 19Q365 19 411 47T495 139L530 118Q507 82 484 57T433 15T373 -9T302 -17Q243 -17 196 4T114 63T62 151T44 259Q44 317 62 367T114 455T195 513T302 535Q360 535 407 515T489 458T542 371T561 259H157Z"  />
<glyph unicode="&#x2202;" horiz-adv-x="611" d="M551 358Q551 296 541 231T502 111T421 22T287 -13Q235 -13 192 4T119 53T71 128T54 222Q54 271 70 312T115 383T187 429T282 446Q320 446 352 435T413 404Q410 435 404 470T382 536T341 587T273 608Q238 608 207 595T143 550L75 641Q120 680 166 700T270 721Q351 721 405 689T491 604T537 487T551 358ZM409 271Q409 276 409 280T408 290Q384 313 358 326T299 340Q245 340 219 304T192 215Q192 190 198 169T217 131T248 105T291 95Q323 95 345 111T382 153T402 210T409 271Z"  />
<glyph unicode="&#x2206;" horiz-adv-x="698" d="M9 0L277 710H405L689 0H9ZM339 542L188 125H500L339 542Z"  />
<glyph unicode="&#x220F;" horiz-adv-x="747" d="M554 -214V668H193V-214H60V786H687V-214H554Z"  />
<glyph unicode="&#x2211;" horiz-adv-x="657" d="M26 -214V-114L323 292L38 686V786H622V668H210L475 293L192 -96H634V-214H26Z"  />
<glyph unicode="&#x2212;" horiz-adv-x="584" d="M26 331H558V202H26V331Z"  />
<glyph unicode="&#x2215;" horiz-adv-x="167" d="M250 725H332L-85 -28H-167L250 725Z"  />
<glyph unicode="&#x2219;" horiz-adv-x="278" d="M74 346H201V213H74V346Z"  />
<glyph unicode="&#x221A;" horiz-adv-x="553" d="M352 -214H236L87 94L36 70L-11 172L150 246L271 -10L434 786H564L352 -214Z"  />
<glyph unicode="&#x221E;" horiz-adv-x="826" d="M781 265Q781 226 769 192T735 133T680 93T605 78Q574 78 548 87T498 110T454 144T414 185Q394 164 374 145T331 111T282 88T224 79Q183 79 150 93T93 132T58 191T45 264Q45 302 57 335T91 393T146 432T220 447Q253 447 280 438T330 412T374 376T414 333Q432 355 452 376T496 413T546 438T606 448Q647 448 679 434T734 395T769 337T781 265ZM677 262Q677 295 658 317T604 340Q586 340 569 332T535 313T505 287T479 261Q504 233 536 210T607 186Q640 186 658 208T677 262ZM347 261Q335 273 320 286T289 312T255 331T220 339Q188 339 169 316T149 262Q149 228 169 208T223 187Q241 187 258 194T291 211T321 235T347 261Z"  />
<glyph unicode="&#x222B;" horiz-adv-x="622" d="M502 702Q502 677 486 660T443 643Q422 643 411 652T394 674T383 696T369 709Q359 705 357 693T355 670Q355 644 356 619T358 567V112Q358 46 353 -13T331 -117T281 -188T193 -214Q175 -214 156 -210T121 -196T95 -170T85 -130Q85 -106 103 -89T145 -72Q166 -72 176 -81T193 -103T203 -125T217 -137Q227 -135 229 -125T231 -104Q231 -78 230 -52T228 0V501Q228 544 231 593T249 685T299 756T395 785Q412 785 431 781T465 767T491 741T502 702Z"  />
<glyph unicode="&#x2248;" horiz-adv-x="584" d="M570 468Q562 375 520 326T409 276Q379 276 346 286T279 308T216 330T163 340Q142 340 130 323T112 285H16Q19 319 29 352T58 410T107 452T178 468Q209 468 240 459T301 439T362 418T423 409Q445 409 457 424T473 468H570ZM569 247Q565 215 556 182T528 123T481 80T410 63Q380 63 346 73T278 95T215 118T162 128Q141 128 128 111T110 66H14Q17 100 27 134T56 196T103 240T172 257Q203 257 234 248T297 227T360 206T423 196Q443 196 455 210T472 247H569Z"  />
<glyph unicode="&#x2260;" horiz-adv-x="584" d="M277 110L203 -36L88 20L135 110H33V237H200L243 321H33V448H308L383 593L498 538L451 448H550V321H386L343 237H550V110H277Z"  />
<glyph unicode="&#x2264;" horiz-adv-x="584" d="M38 18V141H546V18H38ZM38 368V471L546 685V549L240 418L546 291V154L38 368Z"  />
<glyph unicode="&#x2265;" horiz-adv-x="584" d="M38 141H546V18H38V141ZM38 291L344 418L38 549V685L546 471V368L38 154V291Z"  />
<glyph unicode="&#x25CA;" horiz-adv-x="600" d="M354 -35H244L65 356L244 747H354L535 356L354 -35ZM299 619L190 356L299 93L410 356L299 619Z"  />
<glyph unicode="&#xFB01;" horiz-adv-x="611" d="M78 400H2V505H78V574Q78 607 85 636T110 688T163 722T251 735Q259 735 279 735T331 730V627Q320 629 315 629T300 630Q272 630 257 624T234 607T226 586T225 564V505H318V400H225V0H78V400ZM393 722H551V593H393V722ZM398 506H546V0H398V506Z"  />
<glyph unicode="&#xFB02;" horiz-adv-x="611" d="M80 400H5V505H80V574Q80 607 87 636T113 688T166 722T254 735Q262 735 282 735T333 730V627Q322 629 317 629T303 630Q274 630 259 624T237 607T228 586T227 564V505H321V400H227V0H80V400ZM398 723H546V0H398V723Z"  />

</font>
</defs>
</svg>
